STARTFONT 2.1
FONT -MIT-66VR KST-Medium-R-Normal--66-23-200-200-P-32-ISO8859-1
SIZE 23 200 200
FONTBOUNDINGBOX 59 66 -6 -15
STARTPROPERTIES 17
ADD_STYLE_NAME ""
AVERAGE_WIDTH 32
CHARSET_ENCODING "1"
CHARSET_REGISTRY "ISO8859"
DEFAULT_CHAR 0
FAMILY "66VR KST"
FONT_ASCENT 51
FONT_DESCENT 15
FOUNDRY "MIT"
PIXEL_SIZE 66
POINT_SIZE 23
RESOLUTION_X 200
RESOLUTION_Y 200
SETWIDTH_NAME "Normal"
SLANT "R"
SPACING "P"
WEIGHT_NAME "Medium"
ENDPROPERTIES
CHARS 121
STARTCHAR char1
ENCODING 1
SWIDTH 989 0
DWIDTH 23 0
BBX 19 66 0 -15
BITMAP
000000
000000
000000
000000
000000
000000
000000
000000
000000
000000
000000
000000
00E000
00E000
00E000
00E000
00E000
00E000
00E000
00E000
00E000
00E000
00E000
00E000
00E000
00E000
00E000
00E000
00E000
00E000
00E000
00E000
00E000
00E000
00E000
00E000
00E000
00E000
00E000
E0E0E0
F0E1E0
F8E3E0
7CE7C0
3FFF80
1FFF00
0FFE00
07FC00
03F800
01F000
00E000
000000
000000
000000
000000
000000
000000
000000
000000
000000
000000
000000
000000
000000
000000
000000
000000
ENDCHAR
STARTCHAR char2
ENCODING 2
SWIDTH 1978 0
DWIDTH 46 0
BBX 42 66 0 -15
BITMAP
000000000000
000000000000
000000000000
000000000000
000000000000
000000000000
000000000000
000000000000
000000000000
000000000000
000000000000
000000000000
000000000000
000000000000
000000000000
000000000000
000000000000
000000000000
000000000000
000000000000
000000000F80
000000001F00
000000003E00
000000007C00
00000000F800
00000001F000
00000001F000
00000001F000
00000003E000
03FF0007C000
07FF800F8000
0FFFC00F0000
1FFFE01E0000
3FFFF01E0000
7C01F83E0000
F8007FFC0000
F8003FF80000
F8001FF80000
F8000FF00000
F80007E00000
F8000FC00000
F8001FE00000
F8003FF00000
F800FFF80000
7C03F9FC07C0
3FFFF0FE0F80
1FFFE07FFF80
0FFFC03FFF80
07FF801FFE00
03FF000FF800
000000000000
000000000000
000000000000
000000000000
000000000000
000000000000
000000000000
000000000000
000000000000
000000000000
000000000000
000000000000
000000000000
000000000000
000000000000
000000000000
ENDCHAR
STARTCHAR char3
ENCODING 3
SWIDTH 1763 0
DWIDTH 41 0
BBX 37 66 0 -15
BITMAP
0000000000
0000000000
0000003F80
0000007FC0
000000FFE0
000001F1F0
000003E0F8
000007C078
00000F8038
00001F0038
00003E0038
00007C0038
0000F80078
0000F80078
0000F800F8
0001F001F0
0003E003E0
0003E007C0
0007C00F80
0007C01F00
0007C03E00
000F807C00
001F00FC00
001F01FC00
001F01FC00
003E01FE00
007C00FF00
007C003F80
00F8000FC0
00F80003E0
00F80001F0
01F00000F0
03E00000F0
03E00000F0
03E00000F0
03C00000F0
07C00000F0
07810000F0
0F81C000F0
0F81F001F0
1F01F80FE0
1F01FFFFC0
1F00FFFF80
3F003FFE00
3F000FF800
7E00000000
7E00000000
7C00000000
7C00000000
7C00000000
7C00000000
FC00000000
FC00000000
0000000000
0000000000
0000000000
0000000000
0000000000
0000000000
0000000000
0000000000
0000000000
0000000000
0000000000
0000000000
0000000000
ENDCHAR
STARTCHAR char4
ENCODING 4
SWIDTH 1677 0
DWIDTH 39 0
BBX 34 66 0 -15
BITMAP
0000000000
0000000000
0000000000
0000000000
0000000000
0000000000
0000000000
0000000000
0000000000
0000000000
0000000000
0000000000
0000000000
0000000000
0000000000
0000000000
0000000000
0001E00000
0003F00000
0007F80000
0007F80000
000FFC0000
000FFC0000
001FFE0000
001F3E0000
003F3F0000
003F3F0000
007E1F8000
007E1F8000
00FC0FC000
00F807C000
01F807E000
01F807E000
03F003F000
03E001F000
07E001F800
07E001F800
0FC000FC00
0FC000FC00
1F80007E00
1F00003E00
3F00003F00
3F00003F00
7E00001F80
7C00000F80
FC00000FC0
FC00000FC0
F8000007C0
F8000007C0
F0000003C0
0000000000
0000000000
0000000000
0000000000
0000000000
0000000000
0000000000
0000000000
0000000000
0000000000
0000000000
0000000000
0000000000
0000000000
0000000000
0000000000
ENDCHAR
STARTCHAR char5
ENCODING 5
SWIDTH 1032 0
DWIDTH 24 0
BBX 20 66 0 -15
BITMAP
000000
000000
000000
000000
000000
000000
000000
000000
000000
000000
000000
000000
000000
000000
000000
000000
000000
000000
000000
000000
000000
000000
000000
000000
000000
000000
000000
FFFFF0
FFFFF0
FFFFF0
FFFFF0
3FFFF0
0001F0
0000F0
0000F0
0000F0
0000F0
0000F0
0000F0
0000F0
000000
000000
000000
000000
000000
000000
000000
000000
000000
000000
000000
000000
000000
000000
000000
000000
000000
000000
000000
000000
000000
000000
000000
000000
000000
000000
ENDCHAR
STARTCHAR char6
ENCODING 6
SWIDTH 989 0
DWIDTH 23 0
BBX 19 66 0 -15
BITMAP
000000
000000
000000
000000
000000
000000
000000
000000
000000
000000
000000
000000
000000
000000
0007E0
001FE0
007FE0
00FE00
01F800
03E000
07C000
0F8000
1F0000
3F0000
3F0000
7E0000
7E0000
7E0000
FE0000
FE0000
FFFE00
FFFFE0
FFFFE0
FFFE00
FE0000
FE0000
7E0000
7E0000
7E0000
7E0000
3F0000
1F0000
0F8000
07C000
03E000
01F800
00FE00
007FE0
001FE0
0007E0
000000
000000
000000
000000
000000
000000
000000
000000
000000
000000
000000
000000
000000
000000
000000
000000
ENDCHAR
STARTCHAR char7
ENCODING 7
SWIDTH 1419 0
DWIDTH 33 0
BBX 29 66 0 -15
BITMAP
00000000
00000000
00000000
00000000
00000000
00000000
00000000
00000000
00000000
00000000
00000000
00000000
00000000
00000000
00000000
FFFFF800
FFFFFE00
FFFFFFC0
FFFFFFE0
FFFFFFF0
0FC07FF8
0FC07FE0
0FC07E00
0FC07E00
0FC07E00
0FC03E00
0FC03E00
0FC03E00
0FC03E00
0FC03E00
0FC03E00
0FC03E00
0FC03E00
0FC03E00
0FC03E00
0F803E00
0F803E00
0F803E00
0F803E00
0F803E00
FF803E00
FF803F80
FF803FF8
00001FF8
00000FF8
00000000
00000000
00000000
00000000
00000000
00000000
00000000
00000000
00000000
00000000
00000000
00000000
00000000
00000000
00000000
00000000
00000000
00000000
00000000
00000000
00000000
ENDCHAR
STARTCHAR char8
ENCODING 8
SWIDTH 1419 0
DWIDTH 33 0
BBX 29 66 0 -15
BITMAP
00000000
00000000
00000000
00000000
00000000
3C000000
3F000000
3FC00000
3FE00000
0FE00000
03E00000
01F00000
00F80000
007C0000
007C0000
007E0000
003E0000
003F0000
001F0000
001F0000
001F0000
001F0000
001F8000
003F8000
003FC000
007FC000
007FE000
00FBF000
01F1F800
03E1F800
03E0F800
07C0FC00
0FC07E00
1F807E00
3F803E00
7F003F00
FE001F80
FC000FC0
F80007F8
F80003F8
F00001F8
000000F8
00000078
00000000
00000000
00000000
00000000
00000000
00000000
00000000
00000000
00000000
00000000
00000000
00000000
00000000
00000000
00000000
00000000
00000000
00000000
00000000
00000000
00000000
00000000
00000000
ENDCHAR
STARTCHAR char11
ENCODING 11
SWIDTH 903 0
DWIDTH 21 0
BBX 17 66 0 -15
BITMAP
03E000
07F000
0FF800
1FFC00
3FFE00
7FFF00
FFFF80
F3E780
E3E380
C3E180
83E080
03E000
03E000
03E000
03E000
03E000
03E000
03E000
03E000
03E000
03E000
03E000
03E000
03E000
03E000
03E000
03E000
03E000
03E000
03E000
03E000
03E000
03E000
03E000
03E000
03E000
03E000
03E000
03E000
03E000
03E000
03E000
03E000
03E000
03E000
03E000
03E000
03E000
03E000
03E000
03E000
03E000
03E000
000000
000000
000000
000000
000000
000000
000000
000000
000000
000000
000000
000000
000000
ENDCHAR
STARTCHAR char14
ENCODING 14
SWIDTH 2064 0
DWIDTH 48 0
BBX 44 66 0 -15
BITMAP
000000000000
000000000000
000000000000
000000000000
000000000000
000000000000
000000000000
000000000000
000000000000
000000000000
000000000000
000000000000
000000000000
000000000000
000000000000
000000000000
000000000000
000000000000
000000000000
000000000000
000000000000
000000000000
03FF000FFC00
07FF801FFE00
0FFFC03FFF00
1F07E07E0F80
3E03F0FC07C0
7C01F9F803E0
F800FFF001F0
F0007FE000F0
E0003FC00070
E0001F800070
E0001F800070
E0001F800070
E0001F800070
E0001F800070
E0001F800070
E0003FC00070
F0007FE000F0
F800FFF001F0
7C01F9F803E0
3E03F0FC07C0
1F07E07E0F80
0FFFC03FFF00
07FF801FFE00
03FF000FFC00
000000000000
000000000000
000000000000
000000000000
000000000000
000000000000
000000000000
000000000000
000000000000
000000000000
000000000000
000000000000
000000000000
000000000000
000000000000
000000000000
000000000000
000000000000
000000000000
000000000000
ENDCHAR
STARTCHAR char15
ENCODING 15
SWIDTH 1333 0
DWIDTH 31 0
BBX 27 66 0 -15
BITMAP
7C000000
7E000000
7F000000
7F800000
3FC00000
3FE00000
0FF00000
07F80000
07FC0000
01FE0000
01FF0000
007F8000
001FC000
000FE000
0007F000
0007F800
0003FC00
0001FC00
0001FE00
0000FE00
0000FF00
00007F00
00003F80
00001F80
00001FC0
00000FC0
00000FC0
000007C0
000007C0
01FFFFC0
03FFFFC0
0FFFFFE0
3FFFFFE0
3FFFFFE0
FF803FE0
FC0007E0
F80003E0
F80003E0
F80003E0
F80003E0
F80003E0
F80003E0
F80003E0
F80003E0
F80003E0
7C0007C0
7F001FC0
7FC07FC0
3FFFFF80
1FFFFF00
03FFF800
01FFF000
00FFE000
00000000
00000000
00000000
00000000
00000000
00000000
00000000
00000000
00000000
00000000
00000000
00000000
00000000
ENDCHAR
STARTCHAR char16
ENCODING 16
SWIDTH 1462 0
DWIDTH 34 0
BBX 30 66 0 -15
BITMAP
00000000
00000000
00000000
00000000
00000000
00000000
00000000
00000000
00000000
00000000
00000000
00000000
00000000
00000000
00000000
00000000
00000000
00000000
00000000
00000000
00000000
00000000
03FFFFFC
07FFFFFC
0FFFFFFC
1FFFFFFC
3FFFFFF0
7F000000
FE000000
FC000000
F8000000
F8000000
F8000000
F8000000
F8000000
F8000000
F8000000
FC000000
FE000000
7F000000
3FFFFFE0
1FFFFFFC
0FFFFFFC
07FFFFFC
03FFFFFC
00000000
00000000
00000000
00000000
00000000
00000000
00000000
00000000
00000000
00000000
00000000
00000000
00000000
00000000
00000000
00000000
00000000
00000000
00000000
00000000
00000000
ENDCHAR
STARTCHAR char17
ENCODING 17
SWIDTH 1462 0
DWIDTH 34 0
BBX 30 66 0 -15
BITMAP
00000000
00000000
00000000
00000000
00000000
00000000
00000000
00000000
00000000
00000000
00000000
00000000
00000000
00000000
00000000
00000000
00000000
00000000
00000000
00000000
00000000
00000000
FFFFFF00
FFFFFF80
FFFFFFC0
FFFFFFE0
1FFFFFF0
000003F8
000001FC
000000FC
0000007C
0000007C
0000007C
0000007C
0000007C
0000007C
0000007C
000000FC
000001FC
000003F8
1FFFFFF0
FFFFFFE0
FFFFFFC0
FFFFFF80
FFFFFF00
00000000
00000000
00000000
00000000
00000000
00000000
00000000
00000000
00000000
00000000
00000000
00000000
00000000
00000000
00000000
00000000
00000000
00000000
00000000
00000000
00000000
ENDCHAR
STARTCHAR char18
ENCODING 18
SWIDTH 1118 0
DWIDTH 26 0
BBX 22 66 0 -15
BITMAP
000000
000000
000000
000000
000000
000000
000000
000000
000000
000000
000000
000000
000000
000000
000000
000000
000000
000000
000000
000000
03FF00
07FF80
0FFFC0
1FFFE0
3FFFF0
7F03F8
FE01FC
FC00FC
F8007C
F8007C
F8007C
F8007C
F8007C
F8007C
F8007C
F8007C
F8007C
F8007C
F8003C
F0003C
F0003C
F0003C
F0003C
F0003C
F0003C
F0003C
F0003C
F0003C
F0003C
F0003C
000000
000000
000000
000000
000000
000000
000000
000000
000000
000000
000000
000000
000000
000000
000000
000000
ENDCHAR
STARTCHAR char19
ENCODING 19
SWIDTH 1118 0
DWIDTH 26 0
BBX 22 66 0 -15
BITMAP
000000
000000
000000
000000
000000
000000
000000
000000
000000
000000
000000
000000
000000
000000
000000
000000
000000
000000
000000
000000
F0003C
F0003C
F0003C
F0003C
F0003C
F0003C
F0003C
F0003C
F0003C
F0003C
F0003C
F0003C
F0003C
F0003C
F0003C
F0003C
F0003C
F0003C
F0003C
F0003C
F8003C
F8007C
FC00FC
FE01FC
7F03F8
3FFFF0
1FFFE0
0FFFC0
07FF80
03FF00
000000
000000
000000
000000
000000
000000
000000
000000
000000
000000
000000
000000
000000
000000
000000
000000
ENDCHAR
STARTCHAR char20
ENCODING 20
SWIDTH 1419 0
DWIDTH 33 0
BBX 29 66 0 -15
BITMAP
00000000
00000000
00000000
00000000
00000000
00000000
00000000
00000000
00000000
F0000078
F0000078
F80000F8
F80000F8
F80000F8
7C0001F0
7C0001F0
7C0001F0
7C0001F0
3E0003E0
3E0003E0
1F0007C0
1F0007C0
1F0007C0
0FFFFFC0
0FFFFFC0
0FFFFF80
07FFFF80
07FFFF00
07FFFF00
03F07E00
03F07E00
03F07E00
03F07E00
01F07C00
01F07C00
00F8F800
00F8F800
00F8F800
007FF000
007FF000
007FF000
003FE000
003FE000
003FE000
001FC000
001FC000
000F8000
000F8000
00070000
00070000
00000000
00000000
00000000
00000000
00000000
00000000
00000000
00000000
00000000
00000000
00000000
00000000
00000000
00000000
00000000
00000000
ENDCHAR
STARTCHAR char21
ENCODING 21
SWIDTH 1247 0
DWIDTH 29 0
BBX 25 66 0 -15
BITMAP
00000000
00000000
00000000
00000000
00000000
00000000
00000000
FFFFFF80
FFFFFF80
FFFFFF80
FFFFFF80
1FFFFF80
00000F80
00000F80
00000F80
00000F80
00000F80
00000F80
00000F80
00000F80
00000F80
00000F80
00000F80
00000F80
00000F80
003FFF80
00FFFF80
00FFFF80
00FFFF80
00FFFF80
00003F80
00000F80
00000F80
00000F80
00000F80
00000F80
00000F80
00000F80
00000F80
00000F80
00000F80
00000F80
00000F80
00000F80
00000F80
1FFFFF80
FFFFFF80
FFFFFF80
FFFFFF80
FFFFFF80
00000000
00000000
00000000
00000000
00000000
00000000
00000000
00000000
00000000
00000000
00000000
00000000
00000000
00000000
00000000
00000000
ENDCHAR
STARTCHAR char22
ENCODING 22
SWIDTH 1419 0
DWIDTH 33 0
BBX 29 66 0 -15
BITMAP
00000000
00000000
00000000
00000000
00000000
00000000
00000000
00000000
00000000
00000000
00000000
00000000
00000000
00000000
00000000
00000000
00000000
00000000
00000000
00000000
003FE000
00FFF800
03FFFE00
07FFFF00
0F800F80
1F0007C0
3F0007E0
7F0007E0
7F800FF0
7FC01FF0
F9F07CF8
F07FF078
E07FF038
E00F8038
E00F8038
E00F8038
E00F8038
E03FE038
F07FF078
F9F07CF8
7FC01FF0
7F800FF0
7F0007F0
3F0007E0
1F0007C0
0F800F80
07FFFF00
03FFFE00
00FFF800
003FE000
00000000
00000000
00000000
00000000
00000000
00000000
00000000
00000000
00000000
00000000
00000000
00000000
00000000
00000000
00000000
00000000
ENDCHAR
STARTCHAR char23
ENCODING 23
SWIDTH 1849 0
DWIDTH 43 0
BBX 39 66 0 -15
BITMAP
0000000000
0000000000
0000000000
0000000000
0000000000
0000000000
0000000000
0000000000
0000000000
0000000000
0000000000
0000000000
0000000000
0000000000
0000000000
0000000000
0000000000
0000000000
0000000000
0000000000
0000000000
0000000000
001C007000
003C007800
007C007C00
00F8003E00
01F0001F00
03E0000F80
07C00007C0
0F800003E0
1F000001F0
3FFFFFFFF8
7FFFFFFFFC
FFFFFFFFFE
FFFFFFFFFE
7FFFFFFFFC
3FFFFFFFF8
1F000001F0
0F800003E0
07C00007C0
03E0000F80
01F0001F00
00F8003E00
007C007C00
003C007800
001C007000
0000000000
0000000000
0000000000
0000000000
0000000000
0000000000
0000000000
0000000000
0000000000
0000000000
0000000000
0000000000
0000000000
0000000000
0000000000
0000000000
0000000000
0000000000
0000000000
0000000000
ENDCHAR
STARTCHAR char24
ENCODING 24
SWIDTH 1849 0
DWIDTH 43 0
BBX 37 66 0 -15
BITMAP
0000000000
0000000000
0000000000
0000000000
0000000000
0000000000
0000000000
0000000000
0000000000
0000000000
0000000000
0000000000
0000000000
0000000000
0000000000
0000000000
0000000000
0000000000
0000000000
0000000000
00E0000000
01E0000000
03E0000000
07C0000000
0F80000000
1F00000000
3E00000000
7C00000000
FFFFFFE000
FFFFFFFFF8
FFFFFFFFF8
FFFFFFF000
7C00000000
3E00000000
1F00000000
0F80000000
07C0000000
03E0000000
01E0000000
00E0000000
0000000000
0000000000
0000000000
0000000000
0000000000
0000000000
0000000000
0000000000
0000000000
0000000000
0000000000
0000000000
0000000000
0000000000
0000000000
0000000000
0000000000
0000000000
0000000000
0000000000
0000000000
0000000000
0000000000
0000000000
0000000000
0000000000
ENDCHAR
STARTCHAR char25
ENCODING 25
SWIDTH 1634 0
DWIDTH 38 0
BBX 34 66 0 -15
BITMAP
0000000000
0000000000
0000000000
0000000000
0000000000
0000000000
0000000000
0000000000
0000000000
0000000000
0000000000
0000000000
0000000000
0000000000
0000000000
0000000000
0000000000
0000000000
0000000000
0000000000
0000000000
0000000000
00000E0000
00000F0000
00000F8000
000007C000
000003E000
000001F000
000000F800
0000007C00
0000003E00
0007FFFF00
FFFFFFFF80
FFFFFFFFC0
FFFFFFFFC0
FFFFFFFF80
0007FFFF00
0000003E00
0000007C00
000000F800
000001F000
000003E000
000007C000
00000F8000
00000F0000
00000E0000
0000000000
0000000000
0000000000
0000000000
0000000000
0000000000
0000000000
0000000000
0000000000
0000000000
0000000000
0000000000
0000000000
0000000000
0000000000
0000000000
0000000000
0000000000
0000000000
0000000000
ENDCHAR
STARTCHAR char26
ENCODING 26
SWIDTH 1419 0
DWIDTH 33 0
BBX 29 66 0 -15
BITMAP
00000000
00000000
00000000
00000000
00000000
000007C0
000007C0
000007C0
00000FC0
00000F80
00001F80
00001F00
00003F00
00003E00
00007E00
0000FE00
0000FC00
0000FC00
FFFFFFF8
FFFFFFF8
FFFFFFF8
FFFFFFF8
FFFFFFF8
000FC000
000FC000
001FC000
001F8000
001F8000
FFFFFFF8
FFFFFFF8
FFFFFFF8
FFFFFFF8
FFFFFFF8
01F80000
01F80000
03F80000
03F00000
03E00000
07E00000
07C00000
0FC00000
0F800000
1F800000
1F000000
1F000000
1F000000
00000000
00000000
00000000
00000000
00000000
00000000
00000000
00000000
00000000
00000000
00000000
00000000
00000000
00000000
00000000
00000000
00000000
00000000
00000000
00000000
ENDCHAR
STARTCHAR char27
ENCODING 27
SWIDTH 1634 0
DWIDTH 38 0
BBX 34 66 0 -15
BITMAP
0000000000
0000000000
00003C3800
0001FE7800
0007FEF800
000FFFF800
001FFFF800
003E1FF800
007C1FF800
00F83FF800
01F83FF800
01F81FF800
03F803F800
03F803F800
03F803F800
03F803F800
03F803F800
03F803F800
03F803F800
03F803F800
03F803F800
07FFFFF800
FFFFFFF800
FFFFFFF800
FFFFFFF800
07FFFFF800
03F803F800
03F803F800
03F803F800
03F803F800
03F803F800
03F803F800
03F803F800
03F803FC00
03F803FC00
03F803FC00
03F803FC00
03F803FC00
03F803FC00
03F803FC00
03F803FC00
03F803FC00
03F803FC00
03F803FC00
03F803FC00
03F803FC00
07FFFFFE00
FFFFFFFFC0
FFFFFFFFC0
FFFFFFFFC0
0000000000
0000000000
0000000000
0000000000
0000000000
0000000000
0000000000
0000000000
0000000000
0000000000
0000000000
0000000000
0000000000
0000000000
0000000000
0000000000
ENDCHAR
STARTCHAR char28
ENCODING 28
SWIDTH 1419 0
DWIDTH 33 0
BBX 29 66 0 -15
BITMAP
00000000
00000000
00000000
00000000
00000000
00000000
00000000
00000000
00000000
00000000
00000000
00000000
00000078
000001F8
000007F8
00001FF0
00007FE0
0001FF80
0007FE00
001FF800
007FE000
01FF8000
07FE0000
1FF80000
7FE00000
FF800000
FF800000
7FE00000
1FF80000
07FE0000
01FF8000
007FE000
001FF800
0007FE00
0001FF80
00007FE0
00001FF0
000007F8
000001F8
00000078
00000000
00000000
00000000
00000000
00000000
00000000
FFFFFFF8
FFFFFFF8
FFFFFFF8
FFFFFFF8
00000000
00000000
00000000
00000000
00000000
00000000
00000000
00000000
00000000
00000000
00000000
00000000
00000000
00000000
00000000
00000000
ENDCHAR
STARTCHAR char29
ENCODING 29
SWIDTH 1419 0
DWIDTH 33 0
BBX 29 66 0 -15
BITMAP
00000000
00000000
00000000
00000000
00000000
00000000
00000000
00000000
00000000
00000000
00000000
00000000
F0000000
FC000000
FF000000
7FC00000
3FF00000
0FFC0000
03FF0000
00FFC000
003FF000
000FFC00
0003FF00
0000FFC0
00003FF0
00000FF8
00000FF8
00003FF0
0000FFC0
0003FF00
000FFC00
003FF000
00FFC000
03FF0000
0FFC0000
3FF00000
7FC00000
FF000000
FC000000
F0000000
00000000
00000000
00000000
00000000
00000000
00000000
FFFFFFF8
FFFFFFF8
FFFFFFF8
FFFFFFF8
00000000
00000000
00000000
00000000
00000000
00000000
00000000
00000000
00000000
00000000
00000000
00000000
00000000
00000000
00000000
00000000
ENDCHAR
STARTCHAR char30
ENCODING 30
SWIDTH 1032 0
DWIDTH 24 0
BBX 20 66 0 -15
BITMAP
000000
000000
000000
000000
000000
000000
000000
000000
000000
000000
000000
000000
000000
000000
000000
000000
000000
000000
000000
000000
000000
000000
000000
000000
FFFFF0
FFFFF0
FFFFF0
FFFFF0
000000
000000
000000
000000
FFFFF0
FFFFF0
FFFFF0
FFFFF0
FFFFF0
000000
000000
000000
000000
FFFFF0
FFFFF0
FFFFF0
FFFFF0
000000
000000
000000
000000
000000
000000
000000
000000
000000
000000
000000
000000
000000
000000
000000
000000
000000
000000
000000
000000
000000
ENDCHAR
STARTCHAR char31
ENCODING 31
SWIDTH 1462 0
DWIDTH 34 0
BBX 30 66 0 -15
BITMAP
00000000
00000000
00000000
00000000
00000000
00000000
00000000
00000000
00000000
00000000
00000000
00000000
00000000
00000000
00000000
00000000
00000000
00000000
00000000
F000003C
F000003C
F800007C
F800007C
7C0000F8
7C0000F8
3E0001F0
3E0001F0
1F0003E0
1F0003E0
0F8007C0
0F8007C0
07C00F80
07C00F80
03E01F00
03E01F00
01F03E00
01F03E00
00F87C00
00F87C00
007CF800
007CF800
003FF000
003FF000
001FE000
001FE000
000FC000
000FC000
00078000
00078000
00030000
00000000
00000000
00000000
00000000
00000000
00000000
00000000
00000000
00000000
00000000
00000000
00000000
00000000
00000000
00000000
00000000
ENDCHAR
STARTCHAR char32
ENCODING 32
SWIDTH 1118 0
DWIDTH 26 0
BBX 1 66 0 -15
BITMAP
00
00
00
00
00
00
00
00
00
00
00
00
00
00
00
00
00
00
00
00
00
00
00
00
00
00
00
00
00
00
00
00
00
00
00
00
00
00
00
00
00
00
00
00
00
00
00
00
00
00
00
00
00
00
00
00
00
00
00
00
00
00
00
00
00
00
ENDCHAR
STARTCHAR char33
ENCODING 33
SWIDTH 559 0
DWIDTH 13 0
BBX 9 66 0 -15
BITMAP
1C00
3E00
7F00
FF80
FF80
FF80
FF80
FF80
FF80
FF80
FF80
FF80
FF80
FF80
7F00
7F00
7F00
7F00
7F00
7F00
7F00
7F00
7F00
7F00
7F00
7F00
3E00
3E00
1C00
1C00
1C00
1C00
1C00
1C00
1C00
0000
0000
0000
0000
0000
1C00
3E00
7F00
FF80
FF80
FF80
FF80
7F00
3E00
1C00
0000
0000
0000
0000
0000
0000
0000
0000
0000
0000
0000
0000
0000
0000
0000
0000
ENDCHAR
STARTCHAR char34
ENCODING 34
SWIDTH 817 0
DWIDTH 19 0
BBX 15 66 1 -15
BITMAP
F83E
F83E
F83E
F83E
F83E
F83E
F83E
F83E
F83E
F83E
F83E
F83E
F83E
F83E
701C
2008
0000
0000
0000
0000
0000
0000
0000
0000
0000
0000
0000
0000
0000
0000
0000
0000
0000
0000
0000
0000
0000
0000
0000
0000
0000
0000
0000
0000
0000
0000
0000
0000
0000
0000
0000
0000
0000
0000
0000
0000
0000
0000
0000
0000
0000
0000
0000
0000
0000
0000
ENDCHAR
STARTCHAR char35
ENCODING 35
SWIDTH 1548 0
DWIDTH 36 0
BBX 32 66 0 -15
BITMAP
00000000
00000000
00000000
00000000
00000000
00000000
00000000
00000000
00000000
00000000
00000000
00000000
00000000
00000000
00000000
00000000
00000000
00000000
00000000
000781E0
000781E0
000F83E0
001F87E0
001F87E0
001F07C0
1FFFFFFF
3FFFFFFF
7FFFFFFF
7FFFFFFF
7FFFFFFE
007E1F80
007C1F00
00FC3F00
00F83E00
01F87E00
7FFFFFFE
FFFFFFFE
FFFFFFFE
FFFFFFFC
FFFFFFF8
03E0F800
07E1F800
07E1F800
07C1F000
07C1F000
0781E000
00000000
00000000
00000000
00000000
00000000
00000000
00000000
00000000
00000000
00000000
00000000
00000000
00000000
00000000
00000000
00000000
00000000
00000000
00000000
00000000
ENDCHAR
STARTCHAR char36
ENCODING 36
SWIDTH 1333 0
DWIDTH 31 0
BBX 27 66 0 -15
BITMAP
0030E000
0038E000
0078E000
007FE000
007FF000
03FFFC00
07FFFE00
0FF8FF00
1FF8FF80
1E78F7C0
1C78F3C0
3C78F3E0
7C78F7E0
7878F7E0
7878F7E0
7878F7E0
7878F7E0
7878F7C0
7878F000
7C78F000
7C78F000
3FF8F000
3FF8F000
3FFFF000
1FFFF000
1FFFF000
1FFFF800
0FFFFE00
07FFFF00
03FFFF80
007FFFC0
007FFFC0
0078FFC0
0078FFC0
0078FFC0
0078F3E0
0078F1E0
0078F1E0
0078F0E0
7C78F0E0
FC78F0E0
FC78F0E0
FC78F0E0
FC78F1E0
FC78F1E0
7878F1C0
7878F3C0
7C78F7C0
3FF8FF80
1FF8FF00
0FFFFE00
03FFF800
007FF000
007FF000
0078F000
0078E000
0078E000
0038E000
0030E000
0030E000
00000000
00000000
00000000
00000000
00000000
00000000
ENDCHAR
STARTCHAR char37
ENCODING 37
SWIDTH 1462 0
DWIDTH 34 0
BBX 30 66 0 -15
BITMAP
00000000
00000000
00000000
00000000
0007FFE0
000FFFE0
001FFFE0
001E03E0
003C03E0
003C03E0
007803E0
3F7007E0
7FE007C0
FFE00FC0
F3E00FC0
E1E01F80
E1E01F00
E1E03F00
E1E03E00
F3C07E00
FFC07C00
7F80FC00
3F00F800
0001F800
0001F800
0003F000
0003E000
0007E000
0007C000
000FC000
000F8000
001F8000
001F0000
003F0000
003F0000
007E0000
007C0000
00FC01E0
00F803F0
01F807F8
01F00FFC
03F00F3C
03E00E1C
07E00E1C
07E00E1C
0FC00E1C
0F800FFC
1F800FFC
1F0003F0
1F0003F0
00000000
00000000
00000000
00000000
00000000
00000000
00000000
00000000
00000000
00000000
00000000
00000000
00000000
00000000
00000000
00000000
ENDCHAR
STARTCHAR char38
ENCODING 38
SWIDTH 1677 0
DWIDTH 39 0
BBX 37 66 0 -15
BITMAP
0000000000
0000000000
001FFC0000
003FFE0000
007FFF8000
00FFFF8000
01F00FC000
03E007C000
03E007C000
03E007C000
03E007C000
03E007C000
03E007C000
03F00FC000
03F00FC000
01F81FC000
00F81F8000
00FC3F8000
00FFFF0000
003FFC0000
003FFC0000
001FF03FF0
001FF03FF0
003FF00FC0
007FF00780
00FFF00780
01FFF00780
07E3F80780
0FC3F80700
3F81F80F00
3F01FC0F00
7F00FE0E00
7E00FE1E00
FE007E1E00
FC007F3E00
FC003F3C00
FC003FF800
FC001FF800
FC001FF800
FC001FF000
FE001FF000
FF001FF000
7F003FF800
7F007FFC00
7FC0FFFE00
3FFFFFFF00
1FFFF1FF80
0FFFF0FFF0
03FFE07FF8
00FF803FF8
0000000000
0000000000
0000000000
0000000000
0000000000
0000000000
0000000000
0000000000
0000000000
0000000000
0000000000
0000000000
0000000000
0000000000
0000000000
0000000000
ENDCHAR
STARTCHAR char39
ENCODING 39
SWIDTH 559 0
DWIDTH 13 0
BBX 9 66 0 -15
BITMAP
0000
0000
1C00
3E00
7F00
FF80
FF80
FF80
FF80
7F80
3F80
0F80
0380
0780
0780
0700
0700
0700
0600
0400
0000
0000
0000
0000
0000
0000
0000
0000
0000
0000
0000
0000
0000
0000
0000
0000
0000
0000
0000
0000
0000
0000
0000
0000
0000
0000
0000
0000
0000
0000
0000
0000
0000
0000
0000
0000
0000
0000
0000
0000
0000
0000
0000
0000
0000
0000
ENDCHAR
STARTCHAR char40
ENCODING 40
SWIDTH 688 0
DWIDTH 16 0
BBX 12 66 0 -15
BITMAP
0030
0070
01F0
01F0
07C0
07C0
0F80
0F80
1F00
1F00
1F00
1F00
3E00
3E00
7C00
7C00
7C00
7C00
7C00
F800
F800
F800
F800
F800
F800
F800
F800
F800
F800
F800
F800
F800
F800
F800
7C00
7C00
7C00
7C00
7C00
3E00
3E00
3E00
1F00
1F00
1F00
0F80
0F80
07C0
07C0
01F0
01F0
0070
0030
0000
0000
0000
0000
0000
0000
0000
0000
0000
0000
0000
0000
0000
ENDCHAR
STARTCHAR char41
ENCODING 41
SWIDTH 688 0
DWIDTH 16 0
BBX 12 66 0 -15
BITMAP
C000
F000
F800
F800
3E00
3E00
1F00
1F00
0F80
0F80
0F80
0F80
07C0
07C0
03E0
03E0
03E0
03E0
03E0
01F0
01F0
01F0
01F0
01F0
01F0
01F0
01F0
01F0
01F0
01F0
01F0
01F0
01F0
01F0
03E0
03E0
03E0
03E0
03E0
07C0
07C0
07C0
0F80
0F80
0F80
1F00
1F00
3E00
3E00
F800
F800
F000
C000
0000
0000
0000
0000
0000
0000
0000
0000
0000
0000
0000
0000
0000
ENDCHAR
STARTCHAR char42
ENCODING 42
SWIDTH 1118 0
DWIDTH 26 0
BBX 22 66 0 -15
BITMAP
000000
000000
000000
000000
000000
000000
000000
000000
000000
000000
000000
000000
000000
000000
000000
000000
000000
000000
000000
003000
007800
007800
00FC00
00FC00
00FC00
007800
FC78FC
FC78FC
FE79FC
FF7BFC
1FFFF0
07FFC0
01FE00
01FE00
01FE00
07FFC0
1FFFF0
FF7BFC
FE79FC
FC78FC
FC78FC
00FC00
00FC00
00FC00
00FC00
007800
007800
003000
000000
000000
000000
000000
000000
000000
000000
000000
000000
000000
000000
000000
000000
000000
000000
000000
000000
000000
ENDCHAR
STARTCHAR char43
ENCODING 43
SWIDTH 1032 0
DWIDTH 24 0
BBX 20 66 0 -15
BITMAP
000000
000000
000000
000000
000000
000000
000000
000000
000000
000000
000000
000000
000000
000000
000000
000000
000000
000000
000000
000000
000000
000000
00F000
00F000
00F000
00F000
01F800
01F800
01F800
01F800
FFFFF0
FFFFF0
FFFFF0
FFFFF0
FFFFF0
01F800
01F800
01F800
01F800
00F000
00F000
00F000
00F000
000000
000000
000000
000000
000000
000000
000000
000000
000000
000000
000000
000000
000000
000000
000000
000000
000000
000000
000000
000000
000000
000000
000000
ENDCHAR
STARTCHAR char44
ENCODING 44
SWIDTH 559 0
DWIDTH 13 0
BBX 7 66 2 -15
BITMAP
00
00
00
00
00
00
00
00
00
00
00
00
00
00
00
00
00
00
00
00
00
00
00
00
00
00
00
00
00
00
00
00
00
00
00
00
00
00
00
00
00
00
00
00
00
7C
FE
FE
FE
FE
FE
7E
3E
3E
3E
7C
F8
F0
E0
C0
00
00
00
00
00
00
ENDCHAR
STARTCHAR char45
ENCODING 45
SWIDTH 1032 0
DWIDTH 24 0
BBX 20 66 0 -15
BITMAP
000000
000000
000000
000000
000000
000000
000000
000000
000000
000000
000000
000000
000000
000000
000000
000000
000000
000000
000000
000000
000000
000000
000000
000000
000000
000000
000000
000000
000000
000000
000000
000000
FFFFF0
FFFFF0
FFFFF0
FFFFF0
000000
000000
000000
000000
000000
000000
000000
000000
000000
000000
000000
000000
000000
000000
000000
000000
000000
000000
000000
000000
000000
000000
000000
000000
000000
000000
000000
000000
000000
000000
ENDCHAR
STARTCHAR char46
ENCODING 46
SWIDTH 559 0
DWIDTH 13 0
BBX 9 66 0 -15
BITMAP
0000
0000
0000
0000
0000
0000
0000
0000
0000
0000
0000
0000
0000
0000
0000
0000
0000
0000
0000
0000
0000
0000
0000
0000
0000
0000
0000
0000
0000
0000
0000
0000
0000
0000
0000
0000
0000
0000
0000
0000
0000
0000
0000
0000
1C00
3E00
7F00
FF80
FF80
FF80
7F00
3E00
1C00
0000
0000
0000
0000
0000
0000
0000
0000
0000
0000
0000
0000
0000
ENDCHAR
STARTCHAR char47
ENCODING 47
SWIDTH 989 0
DWIDTH 23 0
BBX 19 66 0 -15
BITMAP
0001E0
0001E0
0003E0
0003E0
0003E0
0007E0
0007E0
0007C0
0007C0
000FC0
000F80
001F80
001F00
001F00
003F00
003F00
003E00
007E00
007E00
007C00
00FC00
00FC00
00F800
00F800
01F800
01F000
03F000
03E000
03E000
07E000
07E000
07C000
0FC000
0FC000
0F8000
1F8000
1F8000
1F0000
1F0000
3F0000
3E0000
7E0000
7C0000
7C0000
FC0000
FC0000
F80000
F80000
F80000
F00000
F00000
000000
000000
000000
000000
000000
000000
000000
000000
000000
000000
000000
000000
000000
000000
000000
ENDCHAR
STARTCHAR char48
ENCODING 48
SWIDTH 1333 0
DWIDTH 31 0
BBX 27 66 0 -15
BITMAP
00000000
00000000
007FC000
00FFE000
01FFF000
03E0F800
07C07C00
0F803E00
1F001F00
1F001F00
3F001F80
3F001F80
7F001FC0
7E000FC0
7E000FC0
7C0007C0
FC0007E0
FC0007E0
FC0007E0
FC0007E0
FC0007E0
FC0007E0
FC0007E0
FC0007E0
FC0007E0
FC0007E0
FC0007E0
FC0007E0
FC0007E0
FC0007E0
FC0007E0
FC0007E0
FC0007E0
FC0007E0
FC0007E0
FC0007E0
FC0007E0
7C0007C0
7E000FC0
3E000F80
3E000F80
1F001F00
1F001F00
0F001E00
0F001E00
07803C00
07C07C00
03E0F800
01FFF000
00FFE000
007FC000
00000000
00000000
00000000
00000000
00000000
00000000
00000000
00000000
00000000
00000000
00000000
00000000
00000000
00000000
00000000
ENDCHAR
STARTCHAR char49
ENCODING 49
SWIDTH 1333 0
DWIDTH 31 0
BBX 20 66 6 -15
BITMAP
000000
000000
01F800
07F800
1FF800
7FF800
FFF800
FFF800
1FF800
03F800
03F800
03F800
03F800
03F800
03F800
03F800
03F800
03F800
03F800
03F800
03F800
03F800
03F800
03F800
03F800
03F800
03F800
03F800
03F800
03F800
03F800
03F800
03F800
03F800
03F800
03F800
03F800
03F800
03F800
03F800
03F800
03F800
03FC00
03FC00
03FC00
03FC00
03FE00
FFFFF0
FFFFF0
FFFFF0
000000
000000
000000
000000
000000
000000
000000
000000
000000
000000
000000
000000
000000
000000
000000
000000
ENDCHAR
STARTCHAR char50
ENCODING 50
SWIDTH 1333 0
DWIDTH 31 0
BBX 27 66 0 -15
BITMAP
00000000
00000000
00FF8000
01FFC000
03FFF000
07FFF000
0FFFFC00
1F03FC00
1E01FE00
3C00FF00
38007F00
78007F00
78007F00
7C007F00
7F007F00
7F807F00
7F807F00
7F807F00
3F807F00
1F807F00
00007F00
00007F00
00007F00
00007F00
00007E00
00007E00
0001FC00
0001F800
0003F000
0003E000
0007C000
000F8000
001F0000
001F0000
001F0000
003E0000
007C0000
00F80060
01F80060
03F000E0
07F000E0
0FC000E0
1FC001C0
3FFFFFC0
7FFFFFC0
FFFFFFC0
FFFFFFC0
FFFFFFC0
FFFFFFC0
FFFFFFC0
00000000
00000000
00000000
00000000
00000000
00000000
00000000
00000000
00000000
00000000
00000000
00000000
00000000
00000000
00000000
00000000
ENDCHAR
STARTCHAR char51
ENCODING 51
SWIDTH 1333 0
DWIDTH 31 0
BBX 27 66 0 -15
BITMAP
00000000
00000000
00FFE000
01FFF000
03FFF800
07FFFC00
0F81FE00
0F007E00
0F003E00
1F803F00
1F801F00
1F801F00
0F801F00
00001F00
00001F00
00001F00
00001F00
00003F00
00007F00
0000FC00
0001FC00
0003F000
0007F000
007FC000
07FF0000
07FFF000
03FFFC00
000FFC00
0003FE00
0000FF80
00003F80
00001FC0
00000FC0
00000FE0
000007E0
000007E0
000007E0
7C0007E0
FE0007E0
FE0007E0
FE000FE0
FE001FC0
7C001FC0
7E003F80
7F00FF00
3FFFFE00
1FFFFC00
0FFFF800
03FFE000
00FF8000
00000000
00000000
00000000
00000000
00000000
00000000
00000000
00000000
00000000
00000000
00000000
00000000
00000000
00000000
00000000
00000000
ENDCHAR
STARTCHAR char52
ENCODING 52
SWIDTH 1333 0
DWIDTH 31 0
BBX 27 66 0 -15
BITMAP
00000000
00000000
0000F800
0001F800
0001F800
0003F800
0003F800
0007F800
0007F800
000FF800
000FF800
001FF800
001FF800
003FF800
003BF800
007BF800
0073F800
00E3F800
00E3F800
01E3F800
01C3F800
0383F800
0383F800
0783F800
0703F800
0F03F800
0E03F800
1C03F800
1C03F800
3C03F800
3803F800
7803F8E0
7803F8E0
FFFFFFE0
FFFFFFE0
FFFFFFE0
3FFFFFE0
0003F8E0
0003F8E0
0003F860
0003F800
0003F800
0003F800
0003F800
0003F800
0003F800
0007FC00
003FFFC0
003FFFC0
003FFFC0
00000000
00000000
00000000
00000000
00000000
00000000
00000000
00000000
00000000
00000000
00000000
00000000
00000000
00000000
00000000
00000000
ENDCHAR
STARTCHAR char53
ENCODING 53
SWIDTH 1333 0
DWIDTH 31 0
BBX 25 66 2 -15
BITMAP
00000400
0001FC00
07FFFC00
0FFFFC00
0FFFFC00
1FFFFC00
1FFFFC00
1FFFF800
1FE00000
1C000000
1C000000
1C000000
1C000000
1C000000
1C000000
1C000000
1C000000
1C000000
1C000000
1C000000
1C000000
1FC00000
1FFFC000
1FFFC000
1FFFF000
1C03FC00
0001FE00
0000FF00
00007F00
00007F00
00003F00
00003F80
00001F80
00001F80
00001F80
00001F80
00001F80
78001F80
F8001F80
F8001F80
F8003F80
F8003F00
F8003F00
F8007E00
78007C00
7800F800
3FFFF000
1FFFE000
07FF8000
03FE0000
00000000
00000000
00000000
00000000
00000000
00000000
00000000
00000000
00000000
00000000
00000000
00000000
00000000
00000000
00000000
00000000
ENDCHAR
STARTCHAR char54
ENCODING 54
SWIDTH 1333 0
DWIDTH 31 0
BBX 25 66 2 -15
BITMAP
00000000
00000000
0000FF00
0003FF00
000FFF00
003FE000
007F8000
00FC0000
01F80000
03F00000
07E00000
0FC00000
0FC00000
1F800000
1F800000
3F000000
3F000000
7F000000
7E000000
7E000000
7C000000
FFFFC000
FFFFF800
FFFFFC00
FF80FC00
FF007E00
FF007E00
FF007F00
FE003F80
FE003F80
FC001F80
FC001F80
FC001F80
FC001F80
FC001F80
FC001F80
FC001F80
FC001F80
FE003F80
FE003F80
FE003F80
7E003F00
7F007F00
3F007E00
1F007C00
0F80F800
07FFF000
03FFE000
01FFC000
00FF8000
00000000
00000000
00000000
00000000
00000000
00000000
00000000
00000000
00000000
00000000
00000000
00000000
00000000
00000000
00000000
00000000
ENDCHAR
STARTCHAR char55
ENCODING 55
SWIDTH 1333 0
DWIDTH 31 0
BBX 25 66 2 -15
BITMAP
00000000
00000000
1FFFFF80
1FFFFF80
3FFFFF80
7FFFFF00
7FFFFF00
7C000F00
7C000F00
F8000F00
F8000F00
F0001F00
F0001E00
00001E00
00001E00
00003E00
00003C00
00003800
00003800
00007800
00007800
00007000
0000F000
0000E000
0000E000
0000E000
0001E000
0001E000
0003C000
0003C000
0003C000
0003C000
00078000
00078000
000F8000
001F0000
001F0000
001F0000
001F0000
003F0000
003F0000
003F0000
003F0000
003F0000
003F0000
003F0000
003F0000
003F0000
003F0000
003E0000
00000000
00000000
00000000
00000000
00000000
00000000
00000000
00000000
00000000
00000000
00000000
00000000
00000000
00000000
00000000
00000000
ENDCHAR
STARTCHAR char56
ENCODING 56
SWIDTH 1333 0
DWIDTH 31 0
BBX 29 66 0 -15
BITMAP
00000000
00000000
003FE000
00FFF800
03FFFE00
07FFFF00
0FE03F80
1FC01FC0
1FC01FC0
3F800FE0
3F0007E0
3F0007E0
3F0007E0
3F0007E0
3F0007E0
3F0007E0
3F0007E0
3F800FE0
3F800FE0
1FC01FC0
0FC01F80
07C01F00
03F8FE00
00FFF800
007FF000
01FFFC00
03FFFE00
07E03F00
0FC01F80
1F0007C0
3F0007E0
7E0003F0
FE0003F8
FE0003F8
FE0003F8
FE0003F8
FE0003F8
FE0003F8
FE0003F8
FE0003F8
FE0003F8
FE0003F8
7E0003F0
3F0007E0
1F0007C0
0FC01F80
07FFFF00
03FFFE00
00FFF800
003FE000
00000000
00000000
00000000
00000000
00000000
00000000
00000000
00000000
00000000
00000000
00000000
00000000
00000000
00000000
00000000
00000000
ENDCHAR
STARTCHAR char57
ENCODING 57
SWIDTH 1333 0
DWIDTH 31 0
BBX 25 66 2 -15
BITMAP
00000000
00000000
00FF8000
01FFC000
03FFE000
07FFF000
0F80F800
1F007C00
3F007E00
7F007F00
7E003F00
FE003F80
FE003F80
FE003F80
FC001F80
FC001F80
FC001F80
FC001F80
FC001F80
FC001F80
FC001F80
FC001F80
FE003F80
FE003F80
7F003F80
3F007F80
3F007F80
1F80FF80
1FFFFF80
0FFFFF80
01FFFF80
00001F00
00003F00
00003F00
00003F00
00007E00
00007E00
0000FC00
0000FC00
0001F800
0001F800
0003F000
0007E000
000FC000
001F8000
00FF0000
03FE0000
7FF80000
7FE00000
7F800000
00000000
00000000
00000000
00000000
00000000
00000000
00000000
00000000
00000000
00000000
00000000
00000000
00000000
00000000
00000000
00000000
ENDCHAR
STARTCHAR char58
ENCODING 58
SWIDTH 559 0
DWIDTH 13 0
BBX 9 66 0 -15
BITMAP
0000
0000
0000
0000
0000
0000
0000
0000
0000
0000
0000
0000
0000
0000
0000
0000
0000
0000
0000
0000
1C00
3E00
7F00
FF80
FF80
FF80
FF80
7F00
3E00
1C00
0000
0000
0000
0000
0000
0000
0000
0000
0000
0000
1C00
3E00
7F00
FF80
FF80
FF80
FF80
7F00
3E00
1C00
0000
0000
0000
0000
0000
0000
0000
0000
0000
0000
0000
0000
0000
0000
0000
0000
ENDCHAR
STARTCHAR char59
ENCODING 59
SWIDTH 559 0
DWIDTH 13 0
BBX 9 66 0 -15
BITMAP
0000
0000
0000
0000
0000
0000
0000
0000
0000
0000
0000
0000
0000
0000
0000
0000
0000
0000
0000
0000
1C00
3E00
7F00
FF80
FF80
FF80
FF80
7F00
3E00
0000
0000
0000
0000
0000
0000
0000
0000
0000
0000
0000
1C00
3E00
7F00
FF80
FF80
FF80
FF80
7F80
3F80
1F80
0F80
0F80
0F00
1F00
1E00
1E00
3C00
3C00
0000
0000
0000
0000
0000
0000
0000
0000
ENDCHAR
STARTCHAR char60
ENCODING 60
SWIDTH 1462 0
DWIDTH 34 0
BBX 30 66 0 -15
BITMAP
00000000
00000000
00000000
00000000
00000000
00000000
00000000
00000000
00000000
00000000
00000000
00000000
00000000
00000000
00000000
0000000C
0000007C
000000FC
000007FC
00000FFC
00003FF0
0001FF80
0003FF00
001FF800
003FF000
00FFC000
07FE0000
0FFC0000
7FE00000
FFC00000
FF000000
FFC00000
7FE00000
0FFC0000
07FE0000
00FFC000
003FF000
001FF800
0003FF00
0001FF80
00003FF0
00000FFC
000007FC
000000FC
0000007C
0000000C
00000000
00000000
00000000
00000000
00000000
00000000
00000000
00000000
00000000
00000000
00000000
00000000
00000000
00000000
00000000
00000000
00000000
00000000
00000000
00000000
ENDCHAR
STARTCHAR char61
ENCODING 61
SWIDTH 1032 0
DWIDTH 24 0
BBX 20 66 0 -15
BITMAP
000000
000000
000000
000000
000000
000000
000000
000000
000000
000000
000000
000000
000000
000000
000000
000000
000000
000000
000000
000000
000000
000000
000000
000000
000000
000000
000000
FFFFF0
FFFFF0
FFFFF0
FFFFF0
000000
000000
000000
000000
000000
FFFFF0
FFFFF0
FFFFF0
FFFFF0
000000
000000
000000
000000
000000
000000
000000
000000
000000
000000
000000
000000
000000
000000
000000
000000
000000
000000
000000
000000
000000
000000
000000
000000
000000
000000
ENDCHAR
STARTCHAR char62
ENCODING 62
SWIDTH 1462 0
DWIDTH 34 0
BBX 30 66 0 -15
BITMAP
00000000
00000000
00000000
00000000
00000000
00000000
00000000
00000000
00000000
00000000
00000000
00000000
00000000
00000000
00000000
00000000
00000000
C0000000
F8000000
FC000000
FF800000
FFC00000
3FF00000
07FE0000
03FF0000
007FE000
003FF000
000FFC00
0001FF80
0000FFC0
00001FF8
00000FFC
000003FC
00000FFC
00001FF8
0000FFC0
0001FF80
0007FE00
003FF000
007FE000
03FF0000
07FE0000
1FF80000
FFC00000
FF800000
FC000000
F8000000
E0000000
00000000
00000000
00000000
00000000
00000000
00000000
00000000
00000000
00000000
00000000
00000000
00000000
00000000
00000000
00000000
00000000
00000000
00000000
ENDCHAR
STARTCHAR char63
ENCODING 63
SWIDTH 1032 0
DWIDTH 24 0
BBX 20 66 0 -15
BITMAP
000000
000000
03FC00
07FE00
0FFF00
1FFF80
3FFFC0
7C07E0
7803E0
F801F0
F801F0
F801F0
F801F0
F801F0
F801F0
7001F0
0001F0
0003F0
0003F0
0003F0
0007F0
000FE0
001FE0
003FC0
007F80
00FF00
00FE00
01FC00
01F800
01F000
03E000
03E000
03C000
03C000
038000
038000
000000
000000
000000
000000
000000
000000
038000
07C000
0FE000
1FF000
1FF000
1FF000
0FE000
07C000
038000
000000
000000
000000
000000
000000
000000
000000
000000
000000
000000
000000
000000
000000
000000
000000
ENDCHAR
STARTCHAR char64
ENCODING 64
SWIDTH 1548 0
DWIDTH 36 0
BBX 32 66 0 -15
BITMAP
00000000
00000000
00000000
00000000
00000000
00000000
00000000
00000000
00000000
00000000
00000000
00000000
00000000
00000000
00000000
00000000
00000000
00FFFF00
03FFFFC0
07FFFFE0
0FFFFFF0
0FFFFFF0
1F0000FE
3E00007E
7C00003E
7800001F
F03FFC0F
F0FFFF0F
F0FFFF0F
E1F81F87
E1F81F87
E3F00FC7
E3E007C7
E3E007C7
E3E007C7
E3E007C7
E3F00FC7
E3F00FCF
E1F81FCF
E1F81FDE
E0FFFFFE
E0FFFFFC
E01FFFFC
E0000000
F8000000
F8000000
3FC00000
3FFFFFFF
1FFFFFFF
07FFFFFF
00000000
00000000
00000000
00000000
00000000
00000000
00000000
00000000
00000000
00000000
00000000
00000000
00000000
00000000
00000000
00000000
ENDCHAR
STARTCHAR char65
ENCODING 65
SWIDTH 1978 0
DWIDTH 46 0
BBX 42 66 0 -15
BITMAP
000000000000
000000000000
000004000000
00000E000000
00000E000000
00001F000000
00001F000000
00001F000000
00001F000000
00003F800000
00003F800000
00003FC00000
00007FC00000
00007FC00000
0000E7C00000
0000C7E00000
0001C7E00000
0001C7F00000
0001C7F00000
000387F00000
000383F80000
000303F80000
000701F80000
000701F80000
000701FC0000
000E00FC0000
000E00FE0000
001C00FE0000
001C00FE0000
001C00FE0000
001800FF0000
003FFFFF0000
003FFFFF8000
003FFFFF8000
007FFFFF8000
007FFFFFC000
0060001FC000
00E0000FC000
00E0000FC000
00E0000FE000
01C00007E000
01C00007F000
03800007F000
03800007F000
03800003F000
07000003F800
1F800003FE00
FFFF007FFFC0
FFFF007FFFC0
FFFF007FFFC0
000000000000
000000000000
000000000000
000000000000
000000000000
000000000000
000000000000
000000000000
000000000000
000000000000
000000000000
000000000000
000000000000
000000000000
000000000000
000000000000
ENDCHAR
STARTCHAR char66
ENCODING 66
SWIDTH 1677 0
DWIDTH 39 0
BBX 35 66 0 -15
BITMAP
0000000000
0000000000
FFFFFFE000
FFFFFFF000
FFFFFFF800
1FFFFFFC00
0FE0007E00
0FE0007F00
0FE0007F00
0FE0007F80
0FE0007FC0
0FE0007FC0
0FE0007FC0
0FE0007FC0
0FE0007FC0
0FE0007FC0
0FE0007FC0
0FE0007F80
0FE0007F80
0FE0007F00
0FE0007E00
0FE000FC00
0FE001F800
0FFFFFF000
0FFFFFF000
0FFFFFFC00
0FFFFFFE00
0FE003FF00
0FE001FF80
0FE000FFC0
0FE0007FE0
0FE0003FE0
0FE0001FE0
0FE0001FE0
0FE0001FE0
0FE0001FE0
0FE0001FE0
0FE0001FE0
0FE0001FE0
0FE0001FE0
0FE0001FE0
0FE0001FE0
0FE0001FE0
0FE0001FE0
0FE0003FC0
0FE0007FC0
1FFFFFFFC0
FFFFFFFF80
FFFFFFFE00
FFFFFFF800
0000000000
0000000000
0000000000
0000000000
0000000000
0000000000
0000000000
0000000000
0000000000
0000000000
0000000000
0000000000
0000000000
0000000000
0000000000
0000000000
ENDCHAR
STARTCHAR char67
ENCODING 67
SWIDTH 1763 0
DWIDTH 41 0
BBX 37 66 0 -15
BITMAP
00003C0000
0000FF0000
0007FFF070
001FFFFC70
007F01FEF0
03F8001FF0
07F80007F0
07F00001F0
0FF00001F0
0FE00001F0
1FE00000F0
1FC00000F0
3FC0000070
3FC0000070
7F80000070
7F80000000
FF80000000
FF00000000
FF00000000
FF00000000
FF00000000
FF00000000
FF00000000
FF00000000
FF00000000
FF00000000
FF00000000
FF00000000
FF00000000
FF00000000
FF00000000
FF00000000
FF00000000
FF00000000
FF00000000
7F80000018
7F80000018
7F80000038
3FC0000038
3FC0000038
1FE0000038
1FE0000078
0FE00001F8
0FF00001F8
07F80001F8
03FF003FB8
01FFFFFF38
007FFFFE38
001FFFF818
0007FFE018
0000000000
0000000000
0000000000
0000000000
0000000000
0000000000
0000000000
0000000000
0000000000
0000000000
0000000000
0000000000
0000000000
0000000000
0000000000
0000000000
ENDCHAR
STARTCHAR char68
ENCODING 68
SWIDTH 2064 0
DWIDTH 48 0
BBX 44 66 0 -15
BITMAP
000000000000
000000000000
FFFFFFFF8000
FFFFFFFFC000
FFFFFFFFE000
07FFFFFFF000
03FE000FF800
03FE0007FC00
03FE0001FE00
03FE00007E00
03FE00003F00
03FE00003F00
03FE00003F80
03FE00003F80
03FE00001FC0
03FE00001FC0
03FE00001FE0
03FE00001FE0
03FE00001FF0
03FE00000FF0
03FE00000FF0
03FE00000FF0
03FE00000FF0
03FE00000FF0
03FE00000FF0
03FE00000FF0
03FE00000FF0
03FE00000FF0
03FE00000FF0
03FE00000FF0
03FE00000FF0
03FE00000FF0
03FE00000FF0
03FE00001FF0
03FE00001FF0
03FE00001FE0
03FE00001FE0
03FE00001FE0
03FE00003FC0
03FE00003F80
03FE00003F80
03FE00003F80
03FE00007F00
03FE0001FF00
03FE0007FE00
03FE000FFC00
07FFFFFFF800
FFFFFFFFF000
FFFFFFFFE000
FFFFFFFF8000
000000000000
000000000000
000000000000
000000000000
000000000000
000000000000
000000000000
000000000000
000000000000
000000000000
000000000000
000000000000
000000000000
000000000000
000000000000
000000000000
ENDCHAR
STARTCHAR char69
ENCODING 69
SWIDTH 1849 0
DWIDTH 43 0
BBX 40 66 0 -15
BITMAP
0000000000
0000000000
FFFFFFFFF8
FFFFFFFFF8
FFFFFFFFF8
0FFFFFFFF8
07FE000078
07FE000038
07FE000018
07FE000008
07FE000008
07FE000000
07FE000000
07FE000000
07FE000000
07FE000000
07FE002000
07FE002000
07FE006000
07FE00E000
07FE01E000
07FE03E000
07FE07E000
07FFFFE000
07FFFFE000
07FFFFE000
07FFFFE000
07FE07E000
07FE03E000
07FE01E000
07FE00E000
07FE006000
07FE006000
07FE002000
07FE002000
07FE000000
07FE000000
07FE000000
07FE000001
07FE000001
07FE000003
07FE000003
07FE000007
07FE000007
07FE00000F
07FE00000F
07FFFFFFFF
FFFFFFFFFF
FFFFFFFFFF
FFFFFFFFFF
0000000000
0000000000
0000000000
0000000000
0000000000
0000000000
0000000000
0000000000
0000000000
0000000000
0000000000
0000000000
0000000000
0000000000
0000000000
0000000000
ENDCHAR
STARTCHAR char70
ENCODING 70
SWIDTH 1763 0
DWIDTH 41 0
BBX 37 66 0 -15
BITMAP
0000000000
0000000000
FFFFFFFFF8
FFFFFFFFF8
FFFFFFFFF8
07FFFFFFF8
03FE000078
03FE000038
03FE000038
03FE000018
03FE000018
03FE000008
03FE000008
03FE000008
03FE000008
03FE000000
03FE002000
03FE002000
03FE006000
03FE00E000
03FE01E000
03FE03E000
03FE07E000
03FFFFE000
03FFFFE000
03FFFFE000
03FFFFE000
03FE07E000
03FE03E000
03FE01E000
03FE00E000
03FE006000
03FE002000
03FE002000
03FE002000
03FE000000
03FE000000
03FE000000
03FE000000
03FE000000
03FE000000
03FE000000
03FE000000
03FE000000
03FE000000
03FE000000
07FF000000
FFFFFC0000
FFFFFC0000
FFFFFC0000
0000000000
0000000000
0000000000
0000000000
0000000000
0000000000
0000000000
0000000000
0000000000
0000000000
0000000000
0000000000
0000000000
0000000000
0000000000
0000000000
ENDCHAR
STARTCHAR char71
ENCODING 71
SWIDTH 2064 0
DWIDTH 48 0
BBX 44 66 0 -15
BITMAP
00007F000000
0001FFC00000
0007FFF04000
001FFFFC6000
007F007FF000
00F8001FF000
01F00007F000
03F00007F000
07E00003F000
07E00001F000
0FE00001F000
0FE00000F000
1FE00000F000
1FC000007000
3FC000007000
3FC000003000
7FC000000000
7FC000000000
7FC000000000
7FC000000000
FFC000000000
FFC000000000
FFC000000000
FFC000000000
FFC000000000
FFC000000000
FFC000000000
FFC000000000
FFC000000000
FFC003FFFFF0
FFC003FFFFF0
FFC001FFFFC0
7FC0001FFC00
7FC0001FFC00
7FC0001FFC00
7FC0001FFC00
3FC0001FFC00
3FE0001FFC00
1FE0001FFC00
1FE0001FF800
0FE0001FF800
07E0001FF000
03F0001FF000
01F0001FE000
00F8003FC000
007C007F8000
003FFFFF0000
001FFFFE0000
0007FFF00000
0001FFC00000
000000000000
000000000000
000000000000
000000000000
000000000000
000000000000
000000000000
000000000000
000000000000
000000000000
000000000000
000000000000
000000000000
000000000000
000000000000
000000000000
ENDCHAR
STARTCHAR char72
ENCODING 72
SWIDTH 2193 0
DWIDTH 51 0
BBX 47 66 0 -15
BITMAP
000000000000
000000000000
FFFFF83FFFFE
FFFFF83FFFFE
FFFFF83FFFFE
07FF0001FFC0
03FE0000FF80
03FE0000FF80
03FE0000FF80
03FE0000FF80
03FE0000FF80
03FE0000FF80
03FE0000FF80
03FE0000FF80
03FE0000FF80
03FE0000FF80
03FE0000FF80
03FE0000FF80
03FE0000FF80
03FE0000FF80
03FE0000FF80
03FE0000FF80
03FE0000FF80
03FFFFFFFF80
03FFFFFFFF80
03FFFFFFFF80
03FFFFFFFF80
03FE0000FF80
03FE0000FF80
03FE0000FF80
03FE0000FF80
03FE0000FF80
03FE0000FF80
03FE0000FF80
03FE0000FF80
03FE0000FF80
03FE0000FF80
03FE0000FF80
03FE0000FF80
03FE0000FF80
03FE0000FF80
03FE0000FF80
03FE0000FF80
03FE0000FF80
03FE0000FF80
03FE0000FF80
07FF0000FFC0
FFFFF83FFFFE
FFFFF83FFFFE
FFFFF83FFFFE
000000000000
000000000000
000000000000
000000000000
000000000000
000000000000
000000000000
000000000000
000000000000
000000000000
000000000000
000000000000
000000000000
000000000000
000000000000
000000000000
ENDCHAR
STARTCHAR char73
ENCODING 73
SWIDTH 1032 0
DWIDTH 24 0
BBX 20 66 0 -15
BITMAP
000000
000000
FFFFF0
FFFFF0
FFFFF0
0FFF00
07FE00
07FE00
07FE00
07FE00
07FE00
07FE00
07FE00
07FE00
07FE00
07FE00
07FE00
07FE00
07FE00
07FE00
07FE00
07FE00
07FE00
07FE00
07FE00
07FE00
07FE00
07FE00
07FE00
07FE00
07FE00
07FE00
07FE00
07FE00
07FE00
07FE00
07FE00
07FE00
07FE00
07FE00
07FE00
07FE00
07FE00
07FE00
07FE00
07FE00
07FE00
FFFFF0
FFFFF0
FFFFF0
000000
000000
000000
000000
000000
000000
000000
000000
000000
000000
000000
000000
000000
000000
000000
000000
ENDCHAR
STARTCHAR char74
ENCODING 74
SWIDTH 1247 0
DWIDTH 29 0
BBX 25 66 0 -15
BITMAP
00000000
00000000
07FFFF80
07FFFF80
07FFFF80
003FF000
003FF000
003FF000
003FF000
003FF000
003FF000
003FF000
003FF000
003FF000
003FE000
003FE000
003FE000
003FE000
003FE000
003FE000
003FE000
003FE000
003FE000
003FE000
003FE000
003FE000
003FE000
003FE000
003FE000
003FE000
003FE000
003FE000
003FE000
003FE000
003FE000
003FE000
003FE000
003FE000
003FE000
003FE000
003FE000
003FE000
003FE000
003FE000
003FE000
7C3FE000
FE3FC000
FE3FC000
FE3F8000
FE3F8000
FC3F0000
FC3F0000
7C7E0000
7FFE0000
3FF80000
0FE00000
00000000
00000000
00000000
00000000
00000000
00000000
00000000
00000000
00000000
00000000
ENDCHAR
STARTCHAR char75
ENCODING 75
SWIDTH 2279 0
DWIDTH 53 0
BBX 49 66 0 -15
BITMAP
00000000000000
00000000000000
FFFFFC1FFFF000
FFFFFC1FFFF000
FFFFFC1FFFF000
07FF0003FC0000
03FE0001F00000
03FE0003E00000
03FE0007C00000
03FE000F800000
03FE001F000000
03FE003E000000
03FE007C000000
03FE00F8000000
03FE01F0000000
03FE03E0000000
03FE07C0000000
03FE0F80000000
03FE1F00000000
03FE3E00000000
03FE7E00000000
03FFFE00000000
03FFFF00000000
03FFFF00000000
03FFFF80000000
03FFFFC0000000
03FE7FE0000000
03FE7FE0000000
03FE3FF0000000
03FE3FF0000000
03FE1FF8000000
03FE0FFC000000
03FE07FE000000
03FE03FF000000
03FE01FF800000
03FE01FF800000
03FE01FF800000
03FE00FFC00000
03FE007FE00000
03FE003FF00000
03FE001FF80000
03FE000FFC0000
03FE0007FE0000
03FE0007FE0000
03FE0003FF0000
03FE0001FF8000
07FF0003FFE000
FFFFFC1FFFFF80
FFFFFC1FFFFF80
FFFFFC1FFFFF80
00000000000000
00000000000000
00000000000000
00000000000000
00000000000000
00000000000000
00000000000000
00000000000000
00000000000000
00000000000000
00000000000000
00000000000000
00000000000000
00000000000000
00000000000000
00000000000000
ENDCHAR
STARTCHAR char76
ENCODING 76
SWIDTH 1677 0
DWIDTH 39 0
BBX 35 66 0 -15
BITMAP
0000000000
0000000000
FFFFF00000
FFFFF00000
FFFFF00000
0FFF000000
07FE000000
07FE000000
07FE000000
07FE000000
07FE000000
07FE000000
07FE000000
07FE000000
07FE000000
07FE000000
07FE000000
07FE000000
07FE000000
07FE000000
07FE000000
07FE000000
07FE000000
07FE000000
07FE000000
07FE000000
07FE000000
07FE000000
07FE000000
07FE000000
07FE000000
07FE000000
07FE000000
07FE000000
07FE000000
07FE000000
07FE000020
07FE000020
07FE000060
07FE000060
07FE000060
07FE0000E0
07FE0000E0
07FE0000E0
07FE0001E0
07FE0001E0
07FFFFFFE0
FFFFFFFFE0
FFFFFFFFE0
FFFFFFFFE0
0000000000
0000000000
0000000000
0000000000
0000000000
0000000000
0000000000
0000000000
0000000000
0000000000
0000000000
0000000000
0000000000
0000000000
0000000000
0000000000
ENDCHAR
STARTCHAR char77
ENCODING 77
SWIDTH 2494 0
DWIDTH 58 0
BBX 54 66 0 -15
BITMAP
00000000000000
00000000000000
FFFF0000007FFC
FFFF000000FFFC
FFFF800003FFFC
07FF800003FFE0
03FFC00003FFC0
03FFC00003FFC0
03FFE00007FFC0
03FFE00007FFC0
03FFE0000FFFC0
03DFF0000F7FC0
03DFF0000F7FC0
03CFF0000E7FC0
03CFF8000E7FC0
03C7F8001C7FC0
03C7F8001C7FC0
03C7F8001C7FC0
03C3FC003C7FC0
03C3FC00387FC0
03C3FE00787FC0
03C1FE00707FC0
03C1FE00707FC0
03C1FF00707FC0
03C0FF00F07FC0
03C0FF00E07FC0
03C0FF81E07FC0
03C0FF81E07FC0
03C07F81C07FC0
03C07FC1C07FC0
03C03FC3807FC0
03C03FC3807FC0
03C03FC3807FC0
03C01FE7807FC0
03C01FF7807FC0
03C01FFF807FC0
03C00FFF007FC0
03C00FFF007FC0
03C00FFE007FC0
03C007FE007FC0
03C007FE007FC0
03C007FE007FC0
03C007FE007FC0
03C003FC007FC0
03C003FC007FC0
03C001FC007FC0
07E001F800FFE0
FFFF01F807FFFC
FFFF00F807FFFC
FFFF007007FFFC
00000000000000
00000000000000
00000000000000
00000000000000
00000000000000
00000000000000
00000000000000
00000000000000
00000000000000
00000000000000
00000000000000
00000000000000
00000000000000
00000000000000
00000000000000
00000000000000
ENDCHAR
STARTCHAR char78
ENCODING 78
SWIDTH 2107 0
DWIDTH 49 0
BBX 45 66 0 -15
BITMAP
000000000000
000000000000
FFFF00007FF8
FFFF80007FF8
FFFF80007FF8
0FFFC0000FC0
07FFC0000780
07FFE0000780
07FFF0000780
07DFF8000780
07CFF8000780
07CFF8000780
07C7FC000780
07C7FE000780
07C3FF000780
07C1FF000780
07C0FF800780
07C0FF800780
07C07FC00780
07C03FC00780
07C01FE00780
07C01FF00780
07C01FF80780
07C00FF80780
07C007FC0780
07C007FC0780
07C007FE0780
07C003FE0780
07C003FF0780
07C001FF0780
07C000FF8780
07C0007F8780
07C0007FC780
07C0003FE780
07C0003FF780
07C0001FF780
07C0000FFF80
07C00007FF80
07C00007FF80
07C00003FF80
07C00003FF80
07C00001FF80
07C00000FF80
07C00000FF80
07C000007F80
07C000003F80
07C000001F80
FFFE00001F80
FFFE00000F80
FFFE00000F80
000000000000
000000000000
000000000000
000000000000
000000000000
000000000000
000000000000
000000000000
000000000000
000000000000
000000000000
000000000000
000000000000
000000000000
000000000000
000000000000
ENDCHAR
STARTCHAR char79
ENCODING 79
SWIDTH 1978 0
DWIDTH 46 0
BBX 42 66 0 -15
BITMAP
0000FF000000
0003FFF00000
000FFFFC0000
001FC3FE0000
003F00FF0000
00FC000FC000
01F00003E000
03E00001F000
07E00001F800
0FE00001FC00
0FE00001FC00
1FC00000FE00
1FC00000FE00
3FC00000FF00
3FC00000FF00
7FC00000FF80
7FC00000FF80
7FC00000FF80
7FC00000FF80
FFC00000FFC0
FFC00000FFC0
FFC00000FFC0
FFC00000FFC0
FFC00000FFC0
FFC00000FFC0
FFC00000FFC0
FFC00000FFC0
FFC00000FFC0
FFC00000FFC0
FFC00000FFC0
FFC00000FFC0
FFC00000FFC0
7FC00000FF80
7FC00000FF80
7FC00000FF80
7FC00000FF80
3FC00000FF00
3FC00000FF00
1FC00000FE00
1FC00000FE00
1FE00001FE00
0FE00001FC00
07E00001F800
03E00001F000
01F00003E000
00F80007C000
007F007F8000
003FC3FF0000
000FFFFC0000
0003FFF00000
0000FF000000
000000000000
000000000000
000000000000
000000000000
000000000000
000000000000
000000000000
000000000000
000000000000
000000000000
000000000000
000000000000
000000000000
000000000000
000000000000
ENDCHAR
STARTCHAR char80
ENCODING 80
SWIDTH 1677 0
DWIDTH 39 0
BBX 35 66 0 -15
BITMAP
0000000000
0000000000
FFFFFFE000
FFFFFFF800
FFFFFFFE00
0FFFFFFF00
07FE007F80
07FE003FC0
07FE001FC0
07FE001FE0
07FE001FE0
07FE001FE0
07FE001FE0
07FE001FE0
07FE001FE0
07FE001FE0
07FE001FE0
07FE001FE0
07FE001FE0
07FE001FE0
07FE001FE0
07FE001FC0
07FE001FC0
07FE001F80
07FE003F00
07FE01FE00
07FFFFFC00
07FFFFF800
07FFFFE000
07FFFF0000
07FF000000
07FE000000
07FE000000
07FE000000
07FE000000
07FE000000
07FE000000
07FE000000
07FE000000
07FE000000
07FE000000
07FE000000
07FE000000
07FE000000
07FE000000
07FE000000
07FE000000
FFFFF00000
FFFFF00000
FFFFF00000
0000000000
0000000000
0000000000
0000000000
0000000000
0000000000
0000000000
0000000000
0000000000
0000000000
0000000000
0000000000
0000000000
0000000000
0000000000
0000000000
ENDCHAR
STARTCHAR char81
ENCODING 81
SWIDTH 1978 0
DWIDTH 46 0
BBX 42 66 0 -15
BITMAP
0000FF000000
0003FFF00000
000FFFFC0000
001FC3FE0000
003F00FF0000
00FC000FC000
01F00003E000
03E00001F000
07E00001F800
0FE00001FC00
0FE00001FC00
1FC00000FE00
1FC00000FE00
3FC00000FF00
3FC00000FF00
7FC00000FF80
7FC00000FF80
7FC00000FF80
7FC00000FF80
FFC00000FFC0
FFC00000FFC0
FFC00000FFC0
FFC00000FFC0
FFC00000FFC0
FFC00000FFC0
FFC00000FFC0
FFC00000FFC0
FFC00000FFC0
FFC00000FFC0
FFC00000FFC0
FFC00000FFC0
FFC00000FFC0
7FC00000FF80
7FC00000FF80
7FC00000FF80
7FC00000FF80
3FC00000FF00
3FC00000FF00
1FC00000FE00
1FC00000FE00
1FE00001FE00
0FE00001FC00
07E00001F800
03E00001F000
01F00003E000
00F80007C000
007F007F8000
003FC3FF0000
000FFFFC0000
0007FFF00000
0003FFC00000
0003FFC00000
0003FFC00000
0001FFC00000
0001FFC00000
0000FFC00000
0000FFE00000
0000FFE00000
0000FFF00000
00007FF00000
00007FF00000
00003FF80000
00003FF80000
00001FF80000
00000FF80000
000007F80000
ENDCHAR
STARTCHAR char82
ENCODING 82
SWIDTH 1892 0
DWIDTH 44 0
BBX 40 66 0 -15
BITMAP
0000000000
0000000000
FFFFFFF800
FFFFFFFF00
FFFFFFFF80
07FE003FC0
07FE001FC0
07FE001FE0
07FE001FE0
07FE001FE0
07FE001FE0
07FE001FE0
07FE001FE0
07FE001FE0
07FE001FE0
07FE001FE0
07FE001FE0
07FE001FC0
07FE003FC0
07FE007FC0
07FE00FF80
07FE03FE00
07FE1FF800
07FFFF8000
07FFFF8000
07FFFFC000
07FFFFE000
07FE1FF800
07FE03FC00
07FE01FE00
07FE00FF00
07FE007F00
07FE007F80
07FE003F80
07FE003F80
07FE003FC0
07FE003FC0
07FE003FC0
07FE003FC0
07FE003FC0
07FE001FC0
07FE001FC0
07FE000FC0
07FE000FC0
07FE000FE0
07FE0007E0
1FFF8007F0
FFFFF003F1
FFFFF003FF
00000000FF
000000003E
0000000000
0000000000
0000000000
0000000000
0000000000
0000000000
0000000000
0000000000
0000000000
0000000000
0000000000
0000000000
0000000000
0000000000
0000000000
ENDCHAR
STARTCHAR char83
ENCODING 83
SWIDTH 1462 0
DWIDTH 34 0
BBX 30 66 0 -15
BITMAP
007FF800
01FFFC00
07FFFE38
07E01F38
1FC00FF8
1F0007F8
3E0003F8
780001F8
780000F8
78000078
78000078
78000038
7C000038
7C000038
7E000000
7E000000
7F000000
7F000000
7FC00000
3FF80000
3FFFC000
1FFFF000
1FFFF800
0FFFFF00
07FFFF80
03FFFFC0
00FFFFE0
003FFFE0
000FFFF0
0003FFF0
00003FF8
00000FF8
000007F8
000003F8
000003FC
000001FC
000001FC
C00000FC
C00000FC
E00000FC
E00000FC
E00000FC
F80000F8
F80001F8
FE0001F0
FF0003F0
FFC00FE0
E7E01F80
C7FFFF80
01FFFE00
007FF800
00000000
00000000
00000000
00000000
00000000
00000000
00000000
00000000
00000000
00000000
00000000
00000000
00000000
00000000
00000000
ENDCHAR
STARTCHAR char84
ENCODING 84
SWIDTH 2193 0
DWIDTH 51 0
BBX 47 66 0 -15
BITMAP
000000000000
000000000000
7FFFFFFFFFFC
7FFFFFFFFFFC
7FFFFFFFFFFC
7FFFFFFFFFFC
7E001FF000FC
7C001FF0007C
78001FF0003C
78001FF0003C
70001FF0001C
70001FF0001C
60001FF0000C
E0001FF0000E
E0001FF0000E
C0001FF00006
00001FF00000
00001FF00000
00001FF00000
00001FF00000
00001FF00000
00001FF00000
00001FF00000
00001FF00000
00001FF00000
00001FF00000
00001FF00000
00001FF00000
00001FF00000
00001FF00000
00001FF00000
00001FF00000
00001FF00000
00001FF00000
00001FF00000
00001FF00000
00001FF00000
00001FF00000
00001FF00000
00001FF00000
00001FF00000
00001FF00000
00001FF00000
00001FF00000
00001FF00000
00001FF00000
00003FF80000
001FFFFFF000
001FFFFFF000
001FFFFFF000
000000000000
000000000000
000000000000
000000000000
000000000000
000000000000
000000000000
000000000000
000000000000
000000000000
000000000000
000000000000
000000000000
000000000000
000000000000
000000000000
ENDCHAR
STARTCHAR char85
ENCODING 85
SWIDTH 2064 0
DWIDTH 48 0
BBX 44 66 0 -15
BITMAP
000000000000
000000000000
FFFFF803FFF0
FFFFF803FFF0
FFFFF803FFF0
07FF00007E00
03FE00003C00
03FE00003C00
03FE00003C00
03FE00003C00
03FE00003C00
03FE00003C00
03FE00003C00
03FE00003C00
03FE00003C00
03FE00003C00
03FE00003C00
03FE00003C00
03FE00003C00
03FE00003C00
03FE00003C00
03FE00003C00
03FE00003C00
03FE00003C00
03FE00003C00
03FE00003C00
03FE00003C00
03FE00003C00
03FE00003C00
03FE00003C00
03FE00003C00
03FE00003C00
03FE00003C00
03FE00003C00
03FE00003C00
03FE00003C00
03FE00003C00
03FE00003C00
03FE00003C00
03FE00003C00
03FE00003C00
01FE00003C00
01FF00007C00
00FF0000F800
00FF8001F000
007F8003E000
003FFFFFC000
001FFFFF8000
0003FFFE0000
0000FFF80000
000000000000
000000000000
000000000000
000000000000
000000000000
000000000000
000000000000
000000000000
000000000000
000000000000
000000000000
000000000000
000000000000
000000000000
000000000000
000000000000
ENDCHAR
STARTCHAR char86
ENCODING 86
SWIDTH 2107 0
DWIDTH 49 0
BBX 45 66 0 -15
BITMAP
000000000000
000000000000
FFFFFC03FFF8
FFFFFC03FFF8
FFFFFC03FFF8
0FFF80003F80
03FF00001E00
01FF00001E00
01FF00001C00
00FF00001C00
00FF00003C00
00FF00003800
007F80003800
007F80007800
007FC0007000
007FC0007000
007FC0007000
003FE000F000
003FE000F000
003FE000E000
001FE001E000
001FF001C000
001FF001C000
000FF801C000
000FF803C000
000FF8038000
0007F8038000
0007FC078000
0007FC078000
0003FC070000
0003FE070000
0003FE070000
0003FE0E0000
0001FE0E0000
0001FF1E0000
0000FF1E0000
0000FF1C0000
0000FF3C0000
00007F380000
00007FF80000
00003FF80000
00003FF80000
00001FF00000
00001FF00000
00001FE00000
00001FE00000
00000FE00000
00000FC00000
000007C00000
000007800000
000000000000
000000000000
000000000000
000000000000
000000000000
000000000000
000000000000
000000000000
000000000000
000000000000
000000000000
000000000000
000000000000
000000000000
000000000000
000000000000
ENDCHAR
STARTCHAR char87
ENCODING 87
SWIDTH 2709 0
DWIDTH 63 0
BBX 59 66 0 -15
BITMAP
0000000000000000
0000000000000000
FFFFFFFFFFC1FFE0
FFFFFFFFFFC1FFE0
FFFFFFFFFFC1FFE0
1FFFFFFFFE003F00
0FF807FC3C001E00
07F807FC3C001E00
07FC03FC3C003E00
03FC03FE7C003C00
03FC01FE7C003C00
03FE01FE78007C00
03FE01FE78007800
01FE00FFF0007800
01FF00FFF000F800
00FF00FFF000F800
00FF007FF000F000
00FF007FE000F000
007F807FE001E000
007F803FE001E000
007FC03FE003E000
003FC03FE003E000
003FC03FE003C000
003FC01FE007C000
001FC01FE0078000
001FE01FF0078000
001FE01FF00F8000
001FE01FF00F0000
000FF03FF00F0000
000FF03FF81F0000
0007F83FF81F0000
0007F83FFC1E0000
0007F87FFC1E0000
0007F87FFC3C0000
0007FCFFFC3C0000
0003FCFFFE7C0000
0003FFF1FE7C0000
0003FFF1FF780000
0001FFF1FFF80000
0001FFE0FFF80000
0000FFE0FFE00000
0000FFC07FE00000
0000FFC07FE00000
0000FFC07FE00000
00007FC07FC00000
00007F803FC00000
00003F803F800000
00003F803F800000
00003F001F800000
00003F001F800000
0000000000000000
0000000000000000
0000000000000000
0000000000000000
0000000000000000
0000000000000000
0000000000000000
0000000000000000
0000000000000000
0000000000000000
0000000000000000
0000000000000000
0000000000000000
0000000000000000
0000000000000000
0000000000000000
ENDCHAR
STARTCHAR char88
ENCODING 88
SWIDTH 2107 0
DWIDTH 49 0
BBX 45 66 0 -15
BITMAP
000000000000
000000000000
FFFFF003FFF8
FFFFF003FFF8
FFFFF003FFF8
0FFF80007F80
03FF00003E00
01FF80003C00
00FF80007C00
007FC0007800
007FE000F000
003FE000F000
003FE001F000
001FF003E000
001FF807C000
000FF8078000
000FF8078000
0007FC0F0000
0007FC1F0000
0003FE3E0000
0003FF3C0000
0001FFF80000
0000FFF80000
00007FF00000
00007FF00000
00003FF00000
00003FF00000
00001FF00000
00003FF00000
00003FF80000
00007FF80000
00007FFC0000
0000FFFE0000
0001FFFF0000
0003E1FF0000
0003C0FF8000
0003C0FF8000
000780FFC000
0007807FC000
000F003FE000
001F003FE000
003E003FF000
007C001FF800
00F8000FF800
00F00007FC00
01E00007FE00
03F0000FFF00
FFFE007FFFF8
FFFE007FFFF8
FFFE007FFFF8
000000000000
000000000000
000000000000
000000000000
000000000000
000000000000
000000000000
000000000000
000000000000
000000000000
000000000000
000000000000
000000000000
000000000000
000000000000
000000000000
ENDCHAR
STARTCHAR char89
ENCODING 89
SWIDTH 2107 0
DWIDTH 49 0
BBX 45 66 0 -15
BITMAP
000000000000
000000000000
FFFFF003FFF8
FFFFF003FFF8
FFFFF003FFF8
0FFF00007F80
03FE00003E00
01FE00003C00
01FF00007C00
00FF00007800
007F8000F000
007F8000E000
007FC001E000
003FC001C000
001FE003C000
001FE0038000
001FF0078000
000FF0070000
000FF80F0000
0007F80E0000
0003FC1E0000
0003FC1C0000
0003FE3C0000
0001FFFC0000
0000FFF80000
0000FFF00000
0000FFE00000
00007FC00000
00007FC00000
00007FC00000
00007FC00000
00007FC00000
00007FC00000
00007FC00000
00007FC00000
00007FC00000
00007FC00000
00007FC00000
00007FC00000
00007FC00000
00007FC00000
00007FC00000
00007FC00000
00007FC00000
00007FC00000
00007FC00000
0000FFE00000
001FFFFF0000
001FFFFF0000
001FFFFF0000
000000000000
000000000000
000000000000
000000000000
000000000000
000000000000
000000000000
000000000000
000000000000
000000000000
000000000000
000000000000
000000000000
000000000000
000000000000
000000000000
ENDCHAR
STARTCHAR char90
ENCODING 90
SWIDTH 1677 0
DWIDTH 39 0
BBX 35 66 0 -15
BITMAP
0000000000
0000000000
7FFFFFFFE0
7FFFFFFFE0
7FFFFFFFC0
7FFFFFFFC0
7E0000FFC0
7C0000FF80
7C0001FF80
780001FF00
780003FE00
700003FE00
700007FE00
70000FFC00
70001FF800
00001FF000
00001FF000
00003FE000
00003FE000
00007FC000
0000FFC000
0001FF8000
0001FF0000
0003FE0000
0003FE0000
0007FC0000
000FFC0000
001FF80000
003FF00000
007FE00000
007FC00000
007FC00000
00FF800000
00FF800000
01FF000000
03FF000000
03FE0001C0
03FE0001C0
07FC0001C0
0FFC0003C0
1FF80003C0
1FF00007C0
3FE00007C0
3FE00007C0
7FC00007C0
7FC0000FC0
FFFFFFFFC0
FFFFFFFFC0
FFFFFFFFC0
FFFFFFFFC0
0000000000
0000000000
0000000000
0000000000
0000000000
0000000000
0000000000
0000000000
0000000000
0000000000
0000000000
0000000000
0000000000
0000000000
0000000000
0000000000
ENDCHAR
STARTCHAR char91
ENCODING 91
SWIDTH 688 0
DWIDTH 16 0
BBX 10 66 2 -15
BITMAP
FFC0
FFC0
FFC0
F800
F800
F800
F800
F800
F800
F800
F800
F800
F800
F800
F800
F800
F800
F800
F800
F800
F800
F800
F800
F800
F800
F800
F800
F800
F800
F800
F800
F800
F800
F800
F800
F800
F800
F800
F800
F800
F800
F800
F800
F800
F800
F800
F800
F800
F800
F800
FFC0
FFC0
FFC0
0000
0000
0000
0000
0000
0000
0000
0000
0000
0000
0000
0000
0000
ENDCHAR
STARTCHAR char92
ENCODING 92
SWIDTH 1032 0
DWIDTH 24 0
BBX 19 66 0 -15
BITMAP
F00000
F00000
F80000
F80000
F80000
FC0000
FC0000
7C0000
7C0000
7E0000
7E0000
3F0000
1F0000
1F0000
1F8000
1F8000
0F8000
0FC000
0FC000
07C000
07E000
07E000
03E000
03E000
03F000
03F000
01F800
00F800
00F800
00FC00
00FC00
007C00
007E00
007E00
003E00
003F00
003F00
001F00
001F00
001F80
001F80
000FC0
0007C0
0007C0
0007E0
0007E0
0003E0
0003E0
0003E0
0001E0
0001E0
000000
000000
000000
000000
000000
000000
000000
000000
000000
000000
000000
000000
000000
000000
000000
ENDCHAR
STARTCHAR char93
ENCODING 93
SWIDTH 774 0
DWIDTH 18 0
BBX 10 66 4 -15
BITMAP
FFC0
FFC0
FFC0
0FC0
07C0
07C0
07C0
07C0
07C0
07C0
07C0
07C0
07C0
07C0
07C0
07C0
07C0
07C0
07C0
07C0
07C0
07C0
07C0
07C0
07C0
07C0
07C0
07C0
07C0
07C0
07C0
07C0
07C0
07C0
07C0
07C0
07C0
07C0
07C0
07C0
07C0
07C0
07C0
07C0
07C0
07C0
07C0
07C0
07C0
07C0
FFC0
FFC0
FFC0
0000
0000
0000
0000
0000
0000
0000
0000
0000
0000
0000
0000
0000
ENDCHAR
STARTCHAR char95
ENCODING 95
SWIDTH 1333 0
DWIDTH 31 0
BBX 30 66 0 -15
BITMAP
00000000
00000000
00000000
00000000
00000000
00000000
00000000
00000000
00000000
00000000
00000000
00000000
00000000
00000000
00000000
00000000
00000000
00000000
00000000
00000000
00000000
00000000
00000000
00000000
00000000
00000000
00000000
00000000
00000000
00000000
00000000
00000000
00000000
00000000
00000000
00000000
00000000
00000000
00000000
00000000
00000000
00000000
00000000
00000000
00000000
00000000
00000000
00000000
00000000
00000000
00000000
00000000
00000000
00000000
FFFFFFFC
FFFFFFFC
FFFFFFFC
FFFFFFFC
00000000
00000000
00000000
00000000
00000000
00000000
00000000
00000000
ENDCHAR
STARTCHAR char96
ENCODING 96
SWIDTH 602 0
DWIDTH 14 0
BBX 10 66 0 -15
BITMAP
0000
0000
0F80
3FC0
7FC0
7FC0
FFC0
FFC0
FFC0
87C0
8380
C000
C000
E000
6000
7000
3800
1C00
0E00
0600
0200
0000
0000
0000
0000
0000
0000
0000
0000
0000
0000
0000
0000
0000
0000
0000
0000
0000
0000
0000
0000
0000
0000
0000
0000
0000
0000
0000
0000
0000
0000
0000
0000
0000
0000
0000
0000
0000
0000
0000
0000
0000
0000
0000
0000
0000
ENDCHAR
STARTCHAR char97
ENCODING 97
SWIDTH 1247 0
DWIDTH 29 0
BBX 25 66 0 -15
BITMAP
00000000
00000000
00000000
00000000
00000000
00000000
00000000
00000000
00000000
00000000
00000000
00000000
00000000
00000000
00000000
00000000
00000000
00000000
00000000
00000000
03FFE000
07FFF000
0FFFF800
1FFFFC00
1C01FC00
3E01FC00
3E01FC00
7E01FC00
3E01FC00
1E01FC00
0001FC00
0001FC00
0001FC00
007FFC00
07FFFC00
1FFFFC00
3FFFFC00
7F81FC00
FF01FC00
FE01FC00
FC01FE00
FC01FE00
FC01FE00
FC01FE00
FC03FE00
FE07FE00
FFFFFF80
7FFCFF80
3FF87F80
1FF03F80
00000000
00000000
00000000
00000000
00000000
00000000
00000000
00000000
00000000
00000000
00000000
00000000
00000000
00000000
00000000
00000000
ENDCHAR
STARTCHAR char98
ENCODING 98
SWIDTH 1419 0
DWIDTH 33 0
BBX 29 66 0 -15
BITMAP
00000000
00000000
FFE00000
FFE00000
7FE00000
0FE00000
0FE00000
0FE00000
0FE00000
0FE00000
0FE00000
0FE00000
0FE00000
0FE00000
0FE00000
0FE00000
0FE00000
0FE00000
0FE00000
0FE00000
0FE0F800
0FE3FE00
0FE7FF80
0FFFFFC0
0FFFFFE0
0FFE07E0
0FFC03F0
0FF803F0
0FF003F0
0FF003F0
0FF003F8
0FF003F8
0FF003F8
0FF003F8
0FF003F8
0FF003F8
0FF003F8
0FF003F8
0FF003F8
0FF003F8
0FF003F8
0FF003F8
0FF003F8
0FF003F0
0FF803F0
0FFC07F0
3FFFFFE0
FFFFFFC0
FFFFFF80
0003FF00
0000F800
00000000
00000000
00000000
00000000
00000000
00000000
00000000
00000000
00000000
00000000
00000000
00000000
00000000
00000000
00000000
ENDCHAR
STARTCHAR char99
ENCODING 99
SWIDTH 1204 0
DWIDTH 28 0
BBX 22 66 2 -15
BITMAP
000000
000000
000000
000000
000000
000000
000000
000000
000000
000000
000000
000000
000000
000000
000000
000000
000000
000000
000000
000000
00FC00
03FF00
0FFFC0
1FFFE0
3F87F0
7C00F8
7C00F8
7C00F8
F80078
F80078
F80038
F80000
F80000
F80000
F80000
F80000
F80000
F80000
F80000
F80000
F8000C
F8001C
7C0038
7C0078
7C00F8
3F81F0
1FFFE0
0FFFC0
03FF80
00FF00
000000
000000
000000
000000
000000
000000
000000
000000
000000
000000
000000
000000
000000
000000
000000
000000
ENDCHAR
STARTCHAR char100
ENCODING 100
SWIDTH 1419 0
DWIDTH 33 0
BBX 29 66 0 -15
BITMAP
00000000
00000000
00003FF8
00003FF8
00003FF0
00003F80
00003F80
00003F80
00003F80
00003F80
00003F80
00003F80
00003F80
00003F80
00003F80
00003F80
00003F80
00003F80
00003F80
00003F80
00FC3F80
03FE3F80
0FFF3F80
1FFFFF80
3E01FF80
3E00FF80
7E007F80
7E007F80
7E007F80
7E007F80
FE007F80
FE007F80
FE007F80
FE007F80
FE007F80
FE007F80
FE007F80
FE007F80
FE007F80
FE007F80
FE007F80
FE007F80
FE007F80
7E007F80
7E00FF80
7E00FF80
3E03FFE0
1F07FFF8
0FFFFFF8
07FF0000
00FE0000
00000000
00000000
00000000
00000000
00000000
00000000
00000000
00000000
00000000
00000000
00000000
00000000
00000000
00000000
00000000
ENDCHAR
STARTCHAR char101
ENCODING 101
SWIDTH 1247 0
DWIDTH 29 0
BBX 25 66 0 -15
BITMAP
00000000
00000000
00000000
00000000
00000000
00000000
00000000
00000000
00000000
00000000
00000000
00000000
00000000
00000000
00000000
00000000
00000000
00000000
00000000
00000000
003F8000
00FFE000
03FFF800
07FFFC00
0F80FC00
1F007E00
1F007E00
3F003F00
3F003F00
7F001F00
7F001F00
FFFFFF00
FFFFFF00
FFFFFF00
FFFFFF00
FC000000
FC000000
FC000000
FC000000
FC000000
FE000000
7E000180
7F000180
3F000380
1FC00F00
0FC00E00
07FFFC00
03FFF800
01FFF000
00FFE000
00000000
00000000
00000000
00000000
00000000
00000000
00000000
00000000
00000000
00000000
00000000
00000000
00000000
00000000
00000000
00000000
ENDCHAR
STARTCHAR char102
ENCODING 102
SWIDTH 1118 0
DWIDTH 26 0
BBX 22 66 0 -15
BITMAP
000000
000000
001FF8
003FFC
007FFC
00FFFC
00FC1C
01F8FC
01F8FC
03F8FC
03F87C
03F800
03F800
03F800
03F800
03F800
03F800
03F800
03F800
03F800
03F800
07FC00
FFFFE0
FFFFE0
FFFFE0
07FC00
03F800
03F800
03F800
03F800
03F800
03F800
03F800
03F800
03F800
03F800
03F800
03F800
03F800
03F800
03F800
03F800
03F800
03F800
03F800
03F800
07FC00
FFFFE0
FFFFE0
FFFFE0
000000
000000
000000
000000
000000
000000
000000
000000
000000
000000
000000
000000
000000
000000
000000
000000
ENDCHAR
STARTCHAR char103
ENCODING 103
SWIDTH 1419 0
DWIDTH 33 0
BBX 29 66 0 -15
BITMAP
00000000
00000000
00000000
00000000
00000000
00000000
00000000
00000000
00000000
00000000
00000000
00000000
00000000
00000000
00000000
00000000
00000000
00000000
00000000
00000000
00FF81F8
01FFE3F8
03FFE7F8
07FFFFF8
0F807E78
1F007E00
1F007E00
3F007E00
3F007F00
3F007F00
3F007F00
3F007F00
3F007F00
3F007F00
1F007E00
1F007E00
0F807C00
0F80F800
07FFF000
03FFE000
1FFF8000
3FF80000
3F000000
3C000000
38000000
3E000000
3FF00000
1FFFF800
0FFFFC00
0FFFFE00
3FFFFF00
7FFFFF00
78001F00
F0000F00
E0000700
E0000700
E0000700
E0000700
F0000F00
F8001C00
7C007C00
3FFFF000
1FFFF000
07FF8000
01FF0000
00000000
ENDCHAR
STARTCHAR char104
ENCODING 104
SWIDTH 1634 0
DWIDTH 38 0
BBX 34 66 0 -15
BITMAP
0000000000
0000000000
FFE0000000
FFE0000000
FFE0000000
1FE0000000
0FE0000000
0FE0000000
0FE0000000
0FE0000000
0FE0000000
0FE0000000
0FE0000000
0FE0000000
0FE0000000
0FE0000000
0FE0000000
0FE0000000
0FE0000000
0FE0000000
0FE0000000
0FE0FF8000
0FE1FFF000
0FE3FFF800
0FE7FFF800
0FFFFFF800
0FFF03F800
0FFE03F800
0FFC03F800
0FF803F800
0FF803F800
0FF003F800
0FF003F800
0FF003F800
0FF003F800
0FF003F800
0FF003F800
0FF003F800
0FF003F800
0FF003F800
0FF003FC00
0FF003FC00
0FF003FC00
0FF003FC00
0FF003FC00
0FF003FC00
0FF003FE00
FFFF3FFFC0
FFFF3FFFC0
FFFF3FFFC0
0000000000
0000000000
0000000000
0000000000
0000000000
0000000000
0000000000
0000000000
0000000000
0000000000
0000000000
0000000000
0000000000
0000000000
0000000000
0000000000
ENDCHAR
STARTCHAR char105
ENCODING 105
SWIDTH 817 0
DWIDTH 19 0
BBX 15 66 0 -15
BITMAP
0000
0000
0380
07C0
07C0
07C0
07C0
0380
0000
0000
0000
0000
0000
0000
0000
0000
0000
0000
0000
0000
0000
FFC0
FFC0
3FC0
0FC0
0FE0
0FE0
0FE0
0FE0
0FE0
0FE0
0FE0
0FE0
0FE0
0FE0
0FE0
0FE0
0FE0
0FE0
0FE0
0FE0
0FE0
0FE0
0FE0
0FE0
0FE0
1FF0
FFFE
FFFE
FFFE
0000
0000
0000
0000
0000
0000
0000
0000
0000
0000
0000
0000
0000
0000
0000
0000
ENDCHAR
STARTCHAR char106
ENCODING 106
SWIDTH 774 0
DWIDTH 18 0
BBX 14 66 0 -15
BITMAP
0000
0000
0078
00FC
00FC
00FC
007C
0038
0000
0000
0000
0000
0000
0000
0000
0000
0000
0000
0000
0000
3FFC
3FFC
3FFC
03FC
01FC
01FC
01FC
01FC
01FC
01FC
01FC
01FC
01FC
01FC
01FC
01FC
01FC
01FC
01FC
01FC
01FC
01FC
01FC
01FC
01FC
01FC
01FC
01FC
01FC
01FC
01FC
01FC
01FC
01FC
01FC
01FC
01FC
01FC
01F8
F1F8
F1F8
F1F0
F9E0
F9E0
FFE0
7FC0
ENDCHAR
STARTCHAR char107
ENCODING 107
SWIDTH 1548 0
DWIDTH 36 0
BBX 32 66 0 -15
BITMAP
00000000
00000000
FFF00000
FFF00000
FFF00000
3FC00000
3FC00000
3FC00000
3FC00000
3FC00000
3FC00000
3FC00000
3FC00000
3FC00000
3FC00000
3FC00000
3FC00000
3FC00000
3FC00000
3FC00000
3FC00000
3FC1FFF8
3FC1FFF8
3FC07FC0
3FC01E00
3FC03E00
3FC07C00
3FC0F800
3FC1F000
3FC3E000
3FC7C000
3FCF8000
3FDF0000
3FFF0000
3FFF0000
3FFF8000
3FFFC000
3FDFE000
3FCFF000
3FC7F800
3FC3FC00
3FC1FE00
3FC0FF00
3FC07F80
3FC03FC0
3FC01FE0
3FC01FF8
FFFC3FFF
FFFC3FFF
FFFC3FFF
00000000
00000000
00000000
00000000
00000000
00000000
00000000
00000000
00000000
00000000
00000000
00000000
00000000
00000000
00000000
00000000
ENDCHAR
STARTCHAR char108
ENCODING 108
SWIDTH 817 0
DWIDTH 19 0
BBX 15 66 0 -15
BITMAP
0000
0000
FFC0
FFC0
FFC0
1FC0
0FC0
0FC0
0FC0
0FC0
0FC0
0FE0
0FE0
0FE0
0FE0
0FE0
0FE0
0FE0
0FE0
0FE0
0FE0
0FE0
0FE0
0FE0
0FE0
0FE0
0FE0
0FE0
0FE0
0FE0
0FE0
0FE0
0FE0
0FE0
0FE0
0FE0
0FE0
0FE0
0FE0
0FE0
0FE0
0FE0
0FE0
0FE0
0FE0
0FE0
1FF0
FFFE
FFFE
FFFE
0000
0000
0000
0000
0000
0000
0000
0000
0000
0000
0000
0000
0000
0000
0000
0000
ENDCHAR
STARTCHAR char109
ENCODING 109
SWIDTH 2322 0
DWIDTH 54 0
BBX 50 66 0 -15
BITMAP
00000000000000
00000000000000
00000000000000
00000000000000
00000000000000
00000000000000
00000000000000
00000000000000
00000000000000
00000000000000
00000000000000
00000000000000
00000000000000
00000000000000
00000000000000
00000000000000
00000000000000
00000000000000
00000000000000
00000000000000
FFC0FF807FF000
FFE1FFE0FFF800
FFE3FFE1FFF800
3FE7FFFFFFF800
0FEF87FFC3F800
0FFF03FF81F800
0FFE03FF01F800
0FFC03FE01F800
0FF803FC01FC00
0FF003FC01FC00
0FE003FC01FC00
0FE003FC01FC00
0FE003FC01FC00
0FE003FC01FC00
0FE003FC01FC00
0FE003FC01FC00
0FE003FC01FC00
0FE003FC01FC00
0FE003FC01FC00
0FE003FC01FC00
0FE003FC01FC00
0FE003FC01FC00
0FE003FC01FC00
0FE003FC01FC00
0FE003FC01FC00
0FE003FC01FC00
3FF007FE03FF00
FFFC3FFFCFFFC0
FFFC3FFFCFFFC0
FFFC3FFFCFFFC0
00000000000000
00000000000000
00000000000000
00000000000000
00000000000000
00000000000000
00000000000000
00000000000000
00000000000000
00000000000000
00000000000000
00000000000000
00000000000000
00000000000000
00000000000000
00000000000000
ENDCHAR
STARTCHAR char110
ENCODING 110
SWIDTH 1634 0
DWIDTH 38 0
BBX 34 66 0 -15
BITMAP
0000000000
0000000000
0000000000
0000000000
0000000000
0000000000
0000000000
0000000000
0000000000
0000000000
0000000000
0000000000
0000000000
0000000000
0000000000
0000000000
0000000000
0000000000
0000000000
0000000000
FFE07F0000
FFE1FFC000
FFE1FFF000
1FE3FFF800
0FFFFFF800
0FFF87F800
0FFE03F800
0FFE03F800
0FFC03F800
0FF803F800
0FF803F800
0FF003F800
0FF003F800
0FF003F800
0FF003F800
0FF003F800
0FF003F800
0FF003F800
0FF003F800
0FF003F800
0FF003FC00
0FF003FC00
0FF003FC00
0FF003FC00
0FF003FC00
0FF003FC00
1FF807FE00
FFFF3FFFC0
FFFF3FFFC0
FFFF3FFFC0
0000000000
0000000000
0000000000
0000000000
0000000000
0000000000
0000000000
0000000000
0000000000
0000000000
0000000000
0000000000
0000000000
0000000000
0000000000
0000000000
ENDCHAR
STARTCHAR char111
ENCODING 111
SWIDTH 1333 0
DWIDTH 31 0
BBX 27 66 0 -15
BITMAP
00000000
00000000
00000000
00000000
00000000
00000000
00000000
00000000
00000000
00000000
00000000
00000000
00000000
00000000
00000000
00000000
00000000
00000000
00000000
00000000
003F8000
00FFE000
03FFF800
07FFFC00
0F803E00
1F001F00
3F001F80
7E000FC0
7E000FC0
7C0007C0
FC0007E0
FC0007E0
FC0007E0
FC0007E0
FC0007E0
FC0007E0
FC0007E0
FC0007E0
FC0007E0
FC0007E0
7C0007C0
7E000FC0
7E000FC0
3F001F80
1F001F00
0F803E00
07FFFC00
03FFF800
00FFE000
003F8000
00000000
00000000
00000000
00000000
00000000
00000000
00000000
00000000
00000000
00000000
00000000
00000000
00000000
00000000
00000000
00000000
ENDCHAR
STARTCHAR char112
ENCODING 112
SWIDTH 1462 0
DWIDTH 34 0
BBX 30 66 0 -15
BITMAP
00000000
00000000
00000000
00000000
00000000
00000000
00000000
00000000
00000000
00000000
00000000
00000000
00000000
00000000
00000000
00000000
00000000
00000000
00000000
00000000
FFC3FE00
FFE7FE00
FFEFFF80
0FFF0F80
0FFE03E0
0FFC03F0
0FF801F0
0FF001F8
0FE000F8
0FE000FC
0FE000FC
0FE000FC
0FE000FC
0FE000FC
0FE000FC
0FE000FC
0FE000FC
0FE000FC
0FE000FC
0FE000FC
0FE000FC
0FF001F8
0FF801F8
0FFC03F0
0FFE03E0
0FFF07C0
0FFFFF80
0FE7FF00
0FE3FE00
0FE00000
0FE00000
0FE00000
0FE00000
0FE00000
0FE00000
0FE00000
0FE00000
0FE00000
0FE00000
0FE00000
0FE00000
0FE00000
0FE00000
FFFE0000
FFFE0000
FFFE0000
ENDCHAR
STARTCHAR char113
ENCODING 113
SWIDTH 1462 0
DWIDTH 34 0
BBX 30 66 0 -15
BITMAP
00000000
00000000
00000000
00000000
00000000
00000000
00000000
00000000
00000000
00000000
00000000
00000000
00000000
00000000
00000000
00000000
00000000
00000000
00000000
00000000
00FF0FFC
01FF9FFC
07FFDFFC
07C3FFC0
1F01FFC0
1F00FFC0
3E007FC0
7E003FC0
7C001FC0
FC001FC0
FC001FC0
FC001FC0
FC001FC0
FC001FC0
FC001FC0
FC001FC0
FC001FC0
FC001FC0
FC001FC0
FC001FC0
FC001FC0
7E003FC0
7E007FC0
3F00FFC0
1F01FFC0
0F83FFC0
07FFFFC0
03FF9FC0
01FF1FC0
00001FC0
00001FC0
00001FC0
00001FC0
00001FC0
00001FC0
00001FC0
00001FC0
00001FC0
00001FC0
00001FC0
00001FC0
00001FC0
00001FC0
0000FFF8
0000FFF8
0000FFF8
ENDCHAR
STARTCHAR char114
ENCODING 114
SWIDTH 1204 0
DWIDTH 28 0
BBX 24 66 0 -15
BITMAP
000000
000000
000000
000000
000000
000000
000000
000000
000000
000000
000000
000000
000000
000000
000000
000000
000000
000000
000000
000038
0000FC
FFE3FE
FFE7FF
7FE7FF
0FE7FF
0FFFFF
0FFC7F
0FF87E
0FF800
0FF000
0FF000
0FF000
0FF000
0FF000
0FF000
0FF000
0FF000
0FF000
0FF000
0FF000
0FF000
0FF000
0FF000
0FF000
0FF000
0FF000
0FF000
FFFF80
FFFF80
FFFF80
000000
000000
000000
000000
000000
000000
000000
000000
000000
000000
000000
000000
000000
000000
000000
000000
ENDCHAR
STARTCHAR char115
ENCODING 115
SWIDTH 1032 0
DWIDTH 24 0
BBX 20 66 0 -15
BITMAP
000000
000000
000000
000000
000000
000000
000000
000000
000000
000000
000000
000000
000000
000000
000000
000000
000000
000000
000000
000000
03F800
0FFF00
3FFF80
7C3F80
F80F80
E00380
E00180
E00080
E00080
F00000
FC0000
FFF000
FFFF00
FFFF80
FFFFC0
7FFFE0
3FFFE0
1FFFF0
07FFF0
807FF0
8003F0
C001F0
C001F0
E001F0
E001F0
F001F0
F801E0
FC03E0
EFFFC0
07FF00
00FC00
000000
000000
000000
000000
000000
000000
000000
000000
000000
000000
000000
000000
000000
000000
000000
ENDCHAR
STARTCHAR char116
ENCODING 116
SWIDTH 1118 0
DWIDTH 26 0
BBX 22 66 0 -15
BITMAP
000000
000000
000000
000000
000000
000000
000000
000000
000000
000000
000000
000000
03F000
03F000
03F800
03F800
03F800
03F800
03F800
07FC00
FFFFE0
FFFFE0
FFFFE0
07FC00
03F800
03F800
03F800
03F800
03F800
03F800
03F800
03F800
03F800
03F800
03F800
03F800
03F800
03F800
03F800
03F800
03F800
03F800
03F804
03F804
03F80C
03FC0C
03FE1C
03FF78
01FFF0
00FFE0
007FC0
000000
000000
000000
000000
000000
000000
000000
000000
000000
000000
000000
000000
000000
000000
000000
ENDCHAR
STARTCHAR char117
ENCODING 117
SWIDTH 1634 0
DWIDTH 38 0
BBX 34 66 0 -15
BITMAP
0000000000
0000000000
0000000000
0000000000
0000000000
0000000000
0000000000
0000000000
0000000000
0000000000
0000000000
0000000000
0000000000
0000000000
0000000000
0000000000
0000000000
0000000000
0000000000
0000000000
FFF03FFE00
FFF03FFE00
FFF03FFE00
03F000FE00
03F000FE00
03F800FE00
03F800FE00
03F800FE00
03F800FE00
03F800FE00
03F800FE00
03F800FE00
03F800FE00
03F800FE00
03F800FE00
03F800FE00
03F800FE00
03F800FE00
03F800FE00
03F800FE00
03F801FE00
03F801FE00
03F801FE00
03F801FE00
03F803FE00
03F807FE00
03F80FFF80
03F81EFFC0
01FFFE7FC0
001FF00000
001FF00000
0000000000
0000000000
0000000000
0000000000
0000000000
0000000000
0000000000
0000000000
0000000000
0000000000
0000000000
0000000000
0000000000
0000000000
0000000000
ENDCHAR
STARTCHAR char118
ENCODING 118
SWIDTH 1548 0
DWIDTH 36 0
BBX 32 66 0 -15
BITMAP
00000000
00000000
00000000
00000000
00000000
00000000
00000000
00000000
00000000
00000000
00000000
00000000
00000000
00000000
00000000
00000000
00000000
00000000
00000000
00000000
FFFF07FF
FFFF07FF
FFFF07FF
3FF800FE
07E0003C
03F00038
03F00078
03F80078
03F800F0
03F800F0
01FC01F0
01FC01E0
00FC01C0
00FE03C0
00FE03C0
007F07C0
007F0780
007F0780
003F0780
003F0700
001F8F00
000FDF00
000FDE00
000FFE00
0007FE00
0007FE00
0007FC00
0003F800
0003F800
0001F800
00000000
00000000
00000000
00000000
00000000
00000000
00000000
00000000
00000000
00000000
00000000
00000000
00000000
00000000
00000000
00000000
ENDCHAR
STARTCHAR char119
ENCODING 119
SWIDTH 2107 0
DWIDTH 49 0
BBX 45 66 0 -15
BITMAP
000000000000
000000000000
000000000000
000000000000
000000000000
000000000000
000000000000
000000000000
000000000000
000000000000
000000000000
000000000000
000000000000
000000000000
000000000000
000000000000
000000000000
000000000000
000000000000
000000000000
FFFE00001FF8
FFFE00001FF8
FFFE00801FF8
3FFC01C007F0
0FF801C001E0
0FF801E001E0
07F803E003C0
07F803E003C0
03F803F003C0
03F807F00780
03FC07F80780
01FC0FF80780
01FC0FF80F00
01FC1FFC0F00
01FE1FFE0E00
00FE1EFE0E00
00FF3EFE1E00
00FF3CFE1E00
00FF7CFF3C00
007F787FBC00
007FF87FFC00
003FF03FF800
003FF03FF000
001FE01FF000
001FE01FF000
001FE01FF000
000FC00FE000
000FC00FE000
0007800FC000
00078003C000
000000000000
000000000000
000000000000
000000000000
000000000000
000000000000
000000000000
000000000000
000000000000
000000000000
000000000000
000000000000
000000000000
000000000000
000000000000
000000000000
ENDCHAR
STARTCHAR char120
ENCODING 120
SWIDTH 1462 0
DWIDTH 34 0
BBX 30 66 0 -15
BITMAP
00000000
00000000
00000000
00000000
00000000
00000000
00000000
00000000
00000000
00000000
00000000
00000000
00000000
00000000
00000000
00000000
00000000
00000000
00000000
00000000
FFFE3FF8
FFFE3FF8
FFFE3FF8
3FFC3FC0
07F81F00
07F81E00
03F83C00
03FC3800
01FE7800
01FF7000
00FFF000
00FFC000
007FC000
007FC000
003FC000
003FF000
003FF800
003FF800
003FFC00
003FFC00
0039FE00
00F0FE00
00E0FF00
01E07F80
01E07FC0
03E07FC0
0FF07FF0
FFF0FFFC
FFF0FFFC
FFF0FFFC
00000000
00000000
00000000
00000000
00000000
00000000
00000000
00000000
00000000
00000000
00000000
00000000
00000000
00000000
00000000
00000000
ENDCHAR
STARTCHAR char121
ENCODING 121
SWIDTH 1462 0
DWIDTH 34 0
BBX 30 66 0 -15
BITMAP
00000000
00000000
00000000
00000000
00000000
00000000
00000000
00000000
00000000
00000000
00000000
00000000
00000000
00000000
00000000
00000000
00000000
00000000
00000000
00000000
FFFC0FFC
FFFC0FFC
FFFC0FFC
3FF001F0
1FE000F0
0FE001E0
0FF001E0
07F003C0
07F003C0
03F803C0
03F807C0
03F80780
03FC0780
01FC0700
01FE0F00
00FE0F00
00FF1E00
007F1E00
007F9E00
003FFE00
003FFC00
001FFC00
001FF800
000FF800
000FF000
0007F000
0007E000
0003E000
0003C000
0003C000
00038000
00078000
00070000
000F0000
000F0000
001F0000
001E0000
3E3C0000
7F3C0000
7FFC0000
7FF80000
3FE00000
1F800000
00000000
00000000
00000000
ENDCHAR
STARTCHAR char122
ENCODING 122
SWIDTH 1247 0
DWIDTH 29 0
BBX 25 66 0 -15
BITMAP
00000000
00000000
00000000
00000000
00000000
00000000
00000000
00000000
00000000
00000000
00000000
00000000
00000000
00000000
00000000
00000000
00000000
00000000
00000000
00000000
1FFFFC00
1FFFFC00
1FFFFC00
1FFFFC00
1C03F800
1C03F800
1807F000
1807F000
100FE000
101FE000
101FC000
003FC000
003FC000
007F8000
007F8000
00FF0000
00FE0000
01FE0000
01FC0000
03FC0180
03F80180
07F00380
0FE00300
1FE00300
1FC00F00
3FC00F00
3FFFFF00
7FFFFF00
FFFFFF00
FFFFFF00
00000000
00000000
00000000
00000000
00000000
00000000
00000000
00000000
00000000
00000000
00000000
00000000
00000000
00000000
00000000
00000000
ENDCHAR
STARTCHAR char123
ENCODING 123
SWIDTH 989 0
DWIDTH 23 0
BBX 17 66 0 -15
BITMAP
00FF80
01FC00
03F000
07C000
078000
070000
070000
070000
078000
07C000
03E000
03E000
03E000
03E000
03E000
03E000
03E000
03E000
07C000
0F8000
0F0000
1E0000
3C0000
7C0000
FC0000
FC0000
FC0000
7C0000
3C0000
1E0000
0F0000
0F8000
07C000
03E000
03E000
03E000
03E000
03E000
03E000
03E000
03E000
07C000
078000
070000
070000
070000
078000
07C000
03F000
01FC00
00FF80
000000
000000
000000
000000
000000
000000
000000
000000
000000
000000
000000
000000
000000
000000
000000
ENDCHAR
STARTCHAR char124
ENCODING 124
SWIDTH 387 0
DWIDTH 9 0
BBX 5 66 1 -15
BITMAP
F8
F8
F8
F8
F8
F8
F8
F8
F8
F8
F8
F8
F8
F8
F8
F8
F8
F8
F8
F8
F8
F8
F8
F8
F8
F8
F8
F8
F8
F8
F8
F8
F8
F8
F8
F8
F8
F8
F8
F8
F8
F8
F8
F8
F8
F8
F8
F8
F8
F8
F8
F8
F8
00
00
00
00
00
00
00
00
00
00
00
00
00
ENDCHAR
STARTCHAR char125
ENCODING 125
SWIDTH 903 0
DWIDTH 21 0
BBX 17 66 0 -15
BITMAP
FF8000
1FC000
07E000
01F000
00F000
007000
007000
007000
00F000
01F000
03E000
03E000
03E000
03E000
03E000
03E000
03E000
03E000
01F000
00F800
007800
003C00
001E00
001F00
001F80
001F80
001F80
001F00
001E00
003C00
007800
00F800
01F000
03E000
03E000
03E000
03E000
03E000
03E000
03E000
03E000
01F000
00F000
007000
007000
007000
00F000
01F000
07E000
1FC000
FF8000
000000
000000
000000
000000
000000
000000
000000
000000
000000
000000
000000
000000
000000
000000
000000
ENDCHAR
STARTCHAR char126
ENCODING 126
SWIDTH 1204 0
DWIDTH 28 0
BBX 24 66 0 -15
BITMAP
000000
000000
000000
000000
000000
000000
000000
000000
000000
000000
000000
000000
000000
000000
000000
000000
000000
000000
000000
000000
000000
000000
000000
000000
000000
000000
000000
0FC003
1FE007
3FF007
3FF807
7FFC0F
7FFE0F
FFFF1F
F8FFFF
F07FFE
F03FFE
E01FFC
E00FFC
E007F8
E003F0
000000
000000
000000
000000
000000
000000
000000
000000
000000
000000
000000
000000
000000
000000
000000
000000
000000
000000
000000
000000
000000
000000
000000
000000
000000
ENDCHAR
ENDFONT
